<svg width="396" height="294" viewBox="0 0 396 294" fill="none" xmlns="http://www.w3.org/2000/svg">
<path d="M12.5358 275.954C11.6817 277.038 11.8686 278.61 12.9534 279.464L30.6308 293.384C31.7156 294.238 33.2874 294.051 34.1416 292.967C34.9958 291.882 34.8089 290.31 33.7241 289.456L18.0108 277.083L30.3838 261.369C31.238 260.285 31.0511 258.713 29.9663 257.859C28.8815 257.004 27.3097 257.191 26.4555 258.276L12.5358 275.954ZM306.555 149.427L307.015 146.969L306.555 149.427ZM14.5 277.5C14.7952 279.983 14.7953 279.983 14.7953 279.983C14.7953 279.983 14.7953 279.983 14.7953 279.983C14.7954 279.983 14.7955 279.983 14.7956 279.983C14.7958 279.983 14.7961 279.983 14.7965 279.983C14.7974 279.983 14.7986 279.982 14.8002 279.982C14.8034 279.982 14.8081 279.981 14.8144 279.981C14.8269 279.979 14.8456 279.977 14.8703 279.974C14.9198 279.968 14.9937 279.959 15.0916 279.947C15.2872 279.924 15.5787 279.889 15.9628 279.842C16.7309 279.749 17.8696 279.611 19.3531 279.428L18.7415 274.465C17.2618 274.648 16.1268 274.786 15.3621 274.879C14.9798 274.925 14.69 274.96 14.4961 274.983C14.3991 274.995 14.326 275.003 14.2774 275.009C14.253 275.012 14.2348 275.014 14.2227 275.016C14.2166 275.016 14.2121 275.017 14.2091 275.017C14.2076 275.017 14.2065 275.018 14.2058 275.018C14.2054 275.018 14.2051 275.018 14.205 275.018C14.2049 275.018 14.2048 275.018 14.2048 275.018C14.2048 275.018 14.2048 275.018 14.2048 275.018C14.2048 275.018 14.2048 275.018 14.5 277.5ZM29.4826 278.158C32.3622 277.791 35.6248 277.372 39.234 276.901L38.5878 271.943C34.9838 272.413 31.7261 272.832 28.8512 273.198L29.4826 278.158ZM48.8577 275.634C51.9469 275.223 55.2109 274.785 58.6347 274.32L57.9626 269.366C54.5432 269.829 51.2834 270.267 48.1983 270.678L48.8577 275.634ZM68.6219 272.952C71.7273 272.523 74.9349 272.075 78.236 271.611L77.539 266.66C74.2421 267.124 71.0385 267.57 67.937 267.999L68.6219 272.952ZM88.104 270.209C91.2801 269.754 94.5271 269.284 97.8383 268.801L97.1163 263.853C93.8094 264.336 90.5665 264.805 87.3945 265.259L88.104 270.209ZM107.652 267.356C110.853 266.88 114.105 266.393 117.402 265.894L116.654 260.951C113.362 261.449 110.114 261.935 106.917 262.41L107.652 267.356ZM127.209 264.397C130.418 263.903 133.664 263.398 136.94 262.884L136.165 257.944C132.893 258.458 129.653 258.962 126.447 259.456L127.209 264.397ZM146.756 261.329C149.97 260.815 153.208 260.292 156.466 259.76L155.661 254.825C152.408 255.356 149.175 255.878 145.967 256.391L146.756 261.329ZM166.282 258.143C169.501 257.607 172.735 257.064 175.981 256.512L175.143 251.583C171.903 252.133 168.675 252.676 165.461 253.211L166.282 258.143ZM185.748 254.836C188.985 254.274 192.229 253.705 195.477 253.128L194.604 248.205C191.362 248.78 188.124 249.348 184.893 249.909L185.748 254.836ZM205.206 251.382C208.453 250.793 211.699 250.196 214.941 249.593L214.027 244.678C210.792 245.279 207.553 245.874 204.313 246.463L205.206 251.382ZM224.658 247.763C227.899 247.144 231.133 246.519 234.355 245.888L233.394 240.981C230.18 241.611 226.955 242.234 223.721 242.851L224.658 247.763ZM244.084 243.955C247.312 243.304 250.525 242.647 253.717 241.984L252.701 237.088C249.518 237.749 246.315 238.404 243.096 239.053L244.084 243.955ZM263.468 239.926C266.698 239.233 269.903 238.534 273.079 237.829L271.995 232.948C268.832 233.65 265.638 234.347 262.419 235.037L263.468 239.926ZM282.794 235.633C286.029 234.887 289.228 234.136 292.385 233.378L291.219 228.516C288.077 229.27 284.893 230.018 281.672 230.76L282.794 235.633ZM302.053 231.007C305.29 230.195 308.475 229.377 311.603 228.553L310.329 223.718C307.221 224.537 304.055 225.35 300.836 226.157L302.053 231.007ZM321.23 225.946C324.454 225.048 327.605 224.143 330.677 223.232L329.256 218.438C326.212 219.341 323.087 220.238 319.888 221.129L321.23 225.946ZM340.283 220.279C343.476 219.259 346.564 218.232 349.538 217.198L347.895 212.476C344.966 213.494 341.918 214.508 338.762 215.516L340.283 220.279ZM359.049 213.711C362.329 212.44 365.427 211.157 368.328 209.864L366.292 205.297C363.477 206.552 360.455 207.803 357.242 209.049L359.049 213.711ZM377.303 205.48C380.571 203.712 383.472 201.913 385.946 200.079L382.97 196.062C380.731 197.721 378.041 199.396 374.924 201.082L377.303 205.48ZM393.555 192.401C395.85 188.784 396.524 184.859 394.937 180.894L390.295 182.751C391.179 184.962 390.931 187.204 389.334 189.722L393.555 192.401ZM387.992 172.566C385.613 170.742 382.68 168.96 379.187 167.211L376.948 171.681C380.24 173.33 382.885 174.952 384.951 176.535L387.992 172.566ZM369.658 163.046C366.87 161.969 363.839 160.897 360.558 159.83L359.012 164.585C362.218 165.627 365.162 166.669 367.855 167.71L369.658 163.046ZM350.863 156.9C347.895 156.062 344.762 155.228 341.462 154.396L340.24 159.244C343.499 160.066 346.586 160.888 349.506 161.712L350.863 156.9ZM331.434 151.995C328.471 151.32 325.392 150.647 322.197 149.976L321.169 154.869C324.339 155.535 327.389 156.202 330.324 156.87L331.434 151.995ZM312.255 147.969C310.538 147.635 308.792 147.302 307.015 146.969L306.095 151.884C307.861 152.215 309.596 152.545 311.301 152.877L312.255 147.969ZM307.015 146.969C305.367 146.661 303.728 146.352 302.098 146.041L301.162 150.953C302.798 151.264 304.442 151.575 306.095 151.884L307.015 146.969ZM292.423 144.167C289.234 143.538 286.08 142.905 282.961 142.269L281.962 147.168C285.092 147.807 288.256 148.441 291.456 149.072L292.423 144.167ZM273.357 140.276C270.119 139.592 266.92 138.904 263.76 138.213L262.691 143.097C265.863 143.791 269.074 144.482 272.323 145.168L273.357 140.276ZM254.394 136.127C251.133 135.388 247.914 134.645 244.737 133.899L243.593 138.766C246.783 139.516 250.015 140.262 253.289 141.004L254.394 136.127ZM235.274 131.634C232.092 130.858 228.953 130.078 225.857 129.295L224.631 134.142C227.741 134.929 230.894 135.712 234.09 136.491L235.274 131.634ZM216.319 126.836C213.186 126.013 210.099 125.186 207.059 124.356L205.742 129.179C208.798 130.014 211.9 130.844 215.048 131.672L216.319 126.836ZM197.505 121.696C194.362 120.803 191.269 119.907 188.228 119.008L186.81 123.803C189.869 124.707 192.979 125.608 196.139 126.506L197.505 121.696ZM178.821 116.169C175.68 115.202 172.596 114.231 169.568 113.258L168.038 118.018C171.086 118.998 174.189 119.974 177.349 120.947L178.821 116.169ZM160.27 110.205C157.149 109.157 154.091 108.108 151.094 107.056L149.439 111.774C152.457 112.833 155.537 113.89 158.679 114.945L160.27 110.205ZM141.878 103.746C138.799 102.614 135.789 101.48 132.846 100.346L131.048 105.012C134.015 106.155 137.049 107.298 140.153 108.439L141.878 103.746ZM123.7 96.7308C120.66 95.4984 117.698 94.2659 114.812 93.0339L112.849 97.6326C115.764 98.8767 118.754 100.121 121.822 101.365L123.7 96.7308ZM105.833 89.0954C102.798 87.7269 99.8545 86.3604 96.9995 84.9969L94.8447 89.5088C97.7334 90.8884 100.71 92.2703 103.777 93.6534L105.833 89.0954ZM88.364 80.7478C85.3753 79.2321 82.4937 77.7216 79.7153 76.218L77.3356 80.6154C80.1539 82.1406 83.0749 83.6717 86.1024 85.2071L88.364 80.7478ZM71.2136 71.4558C68.3209 69.7776 65.5546 68.1103 62.9092 66.4563L60.2585 70.6959C62.9517 72.3798 65.7653 74.0755 68.7045 75.7807L71.2136 71.4558ZM54.8052 61.1812C52.0252 59.2952 49.4005 57.4305 46.9225 55.5906L43.9419 59.6051C46.4784 61.4884 49.161 63.3941 51.9982 65.3189L54.8052 61.1812ZM39.3064 49.6472C36.6869 47.4945 34.2679 45.3839 32.034 43.3218L28.6425 46.9957C30.9489 49.1248 33.4404 51.2983 36.1318 53.5101L39.3064 49.6472ZM25.2231 36.6052C22.8539 34.0989 20.763 31.6844 18.9179 29.3751L15.0117 32.4963C16.9458 34.9168 19.1278 37.4358 21.5896 40.04L25.2231 36.6052ZM13.3732 21.6853C11.4214 18.6474 9.92576 15.8745 8.77941 13.4099L4.24583 15.5187C5.48906 18.1915 7.09436 21.1627 9.16659 24.388L13.3732 21.6853ZM5.6519 4.69088C5.30848 3.25837 5.14594 2.16932 5.06897 1.46255C5.03048 1.10907 5.01336 0.850923 5.00575 0.692958C5.00194 0.613973 5.00051 0.560018 4.99997 0.531696C4.99971 0.517534 4.99967 0.509777 4.99967 0.508503C4.99965 0.507877 4.99967 0.508855 4.99966 0.511474C4.99965 0.512784 4.99965 0.514501 4.99963 0.516625C4.99963 0.517687 4.99962 0.51885 4.99961 0.520116C4.99961 0.520748 4.9996 0.521403 4.99959 0.522092C4.99959 0.522437 4.99959 0.522968 4.99959 0.523134C4.99958 0.523679 4.99957 0.524227 2.49969 0.500004C-0.000187761 0.47578 -0.000198908 0.476345 -0.000206866 0.476913C-0.000201833 0.477102 -0.000206335 0.477673 -0.000216512 0.478075C-0.000216446 0.478855 -0.000223688 0.47967 -0.000228116 0.480507C-0.000247095 0.482195 -0.000254553 0.483974 -0.000270824 0.485869C-0.000293155 0.489647 -0.000309716 0.493841 -0.000329742 0.498464C-0.000349375 0.507685 -0.000342031 0.518574 -0.000289171 0.531126C-0.000173154 0.556218 0.000144811 0.587939 0.000873927 0.626189C0.00232239 0.702702 0.00537091 0.805377 0.011538 0.933588C0.0239004 1.18999 0.0487699 1.54843 0.0983562 2.00382C0.197555 2.91479 0.395563 4.21259 0.789675 5.85654L5.6519 4.69088Z" fill="#F0DCFF"/>
</svg>
