<svg width="711" height="435" viewBox="0 0 711 435" fill="none" xmlns="http://www.w3.org/2000/svg">
<path d="M609.246 287.275L610.849 289.193L609.246 287.275ZM76.8106 125.763L76.3299 123.31L76.8106 125.763ZM36.6645 434.26C37.9127 434.85 39.4031 434.317 39.9933 433.069L49.6112 412.728C50.2014 411.48 49.6679 409.989 48.4197 409.399C47.1715 408.809 45.6812 409.342 45.091 410.591L36.5418 428.671L18.4611 420.122C17.2129 419.532 15.7226 420.065 15.1324 421.313C14.5422 422.562 15.0756 424.052 16.3238 424.642L36.6645 434.26ZM38.5158 426.586C38.076 425.277 36.6585 424.573 35.3497 425.013C34.0409 425.452 33.3364 426.87 33.7763 428.179L38.5158 426.586ZM30.6185 418.475C31.0346 419.792 32.4392 420.522 33.7557 420.106C35.0722 419.69 35.8022 418.285 35.3861 416.969L30.6185 418.475ZM32.405 407.287C32.0081 405.965 30.6143 405.214 29.2919 405.611C27.9694 406.008 27.2191 407.402 27.616 408.724L32.405 407.287ZM24.744 398.911C25.1229 400.239 26.5064 401.008 27.8341 400.629C29.1618 400.251 29.931 398.867 29.5521 397.539L24.744 398.911ZM26.8422 387.801C26.4808 386.469 25.1076 385.681 23.775 386.043C22.4424 386.404 21.6551 387.777 22.0165 389.11L26.8422 387.801ZM19.426 379.304C19.7698 380.641 21.1326 381.447 22.4698 381.103C23.807 380.759 24.6123 379.396 24.2684 378.059L19.426 379.304ZM21.8252 368.29C21.4992 366.948 20.1473 366.125 18.8056 366.451C17.4639 366.777 16.6406 368.129 16.9666 369.471L21.8252 368.29ZM14.6379 359.593C14.9454 360.939 16.2858 361.781 17.6319 361.473C18.9779 361.166 19.8198 359.825 19.5123 358.479L14.6379 359.593ZM17.3341 348.621C17.0459 347.27 15.7177 346.409 14.3674 346.697C13.0171 346.985 12.156 348.314 12.4441 349.664L17.3341 348.621ZM10.393 339.686C10.6607 341.041 11.9758 341.922 13.3303 341.654C14.6848 341.386 15.5658 340.071 15.2981 338.717L10.393 339.686ZM13.4147 328.776C13.1687 327.417 11.8678 326.515 10.5092 326.761C9.15059 327.008 8.2487 328.308 8.49478 329.667L13.4147 328.776ZM6.76993 319.669C6.99305 321.031 8.2785 321.955 9.64106 321.732C11.0036 321.509 11.9273 320.223 11.7042 318.861L6.76993 319.669ZM10.1642 308.898C9.96575 307.532 8.69721 306.585 7.33084 306.784C5.96446 306.982 5.01765 308.251 5.21609 309.617L10.1642 308.898ZM3.84914 299.522C4.0209 300.892 5.27073 301.864 6.64072 301.692C8.01071 301.52 8.98206 300.27 8.81031 298.9L3.84914 299.522ZM7.66047 288.886C7.51766 287.512 6.28861 286.515 4.9153 286.658C3.54199 286.8 2.54448 288.03 2.68728 289.403L7.66047 288.886ZM1.74872 279.262C1.85994 280.639 3.06574 281.664 4.44197 281.553C5.81819 281.442 6.84369 280.236 6.73248 278.86L1.74872 279.262ZM6.04589 268.811C5.96943 267.433 4.78988 266.377 3.41128 266.454C2.03269 266.53 0.977104 267.71 1.05357 269.088L6.04589 268.811ZM0.628209 258.901C0.666284 260.281 1.81601 261.369 3.1962 261.331C4.57639 261.293 5.66438 260.143 5.62631 258.763L0.628209 258.901ZM5.5017 248.725C5.50628 247.344 4.39072 246.221 3.01001 246.217C1.62931 246.212 0.506311 247.328 0.501727 248.708L5.5017 248.725ZM0.709831 238.478C0.65734 239.857 1.73327 241.018 3.11298 241.071C4.49269 241.123 5.65373 240.047 5.70622 238.668L0.709831 238.478ZM6.27993 228.645C6.38635 227.269 5.35666 226.066 3.98006 225.96C2.60345 225.853 1.40122 226.883 1.2948 228.26L6.27993 228.645ZM2.30467 218.079C2.13724 219.45 3.11255 220.697 4.48307 220.864C5.8536 221.031 7.10035 220.056 7.26777 218.686L2.30467 218.079ZM8.72204 208.819C8.95878 207.459 8.04798 206.164 6.68772 205.928C5.32745 205.691 4.03282 206.602 3.79608 207.962L8.72204 208.819ZM5.85038 197.88C5.53413 199.224 6.3673 200.569 7.71131 200.886C9.05531 201.202 10.4012 200.369 10.7175 199.025L5.85038 197.88ZM13.3226 189.399C13.7297 188.08 12.9901 186.68 11.6708 186.273C10.3515 185.866 8.95192 186.606 8.54485 187.925L13.3226 189.399ZM11.9679 178.183C11.4578 179.466 12.0843 180.919 13.3674 181.429C14.6504 181.94 16.104 181.313 16.6141 180.03L11.9679 178.183ZM20.6747 171.014C21.3002 169.783 20.8095 168.278 19.5786 167.653C18.3477 167.027 16.8428 167.518 16.2173 168.749L20.6747 171.014ZM21.3868 159.755C20.6354 160.913 20.9654 162.462 22.1238 163.213C23.2821 163.964 24.8303 163.634 25.5816 162.476L21.3868 159.755ZM31.3909 154.567C32.2738 153.506 32.1289 151.929 31.0673 151.046C30.0057 150.164 28.4295 150.308 27.5466 151.37L31.3909 154.567ZM34.7159 143.789C33.7041 144.728 33.6453 146.31 34.5847 147.322C35.5241 148.334 37.106 148.392 38.1178 147.453L34.7159 143.789ZM45.7218 141.286C46.8502 140.491 47.1199 138.931 46.3242 137.802C45.5285 136.674 43.9687 136.404 42.8404 137.2L45.7218 141.286ZM51.7681 131.757C50.5445 132.396 50.0712 133.907 50.7108 135.13C51.3505 136.354 52.861 136.827 54.0846 136.188L51.7681 131.757ZM63.0112 132.214C64.3046 131.731 64.9611 130.29 64.4777 128.997C63.9943 127.704 62.554 127.047 61.2607 127.53L63.0112 132.214ZM71.1454 124.465C69.8062 124.801 68.9929 126.159 69.3288 127.499C69.6647 128.838 71.0227 129.651 72.3619 129.315L71.1454 124.465ZM81.9994 127.423C83.3664 127.228 84.317 125.963 84.1226 124.596C83.9283 123.229 82.6626 122.278 81.2956 122.472L81.9994 127.423ZM91.4663 121.53C90.0871 121.593 89.0204 122.763 89.0839 124.142C89.1473 125.521 90.3168 126.588 91.6961 126.525L91.4663 121.53ZM101.405 126.481C102.785 126.529 103.942 125.449 103.99 124.069C104.038 122.689 102.958 121.532 101.578 121.484L101.405 126.481ZM111.621 122.185C110.248 122.044 109.019 123.042 108.877 124.415C108.735 125.789 109.734 127.017 111.107 127.159L111.621 122.185ZM120.872 128.464C122.235 128.686 123.519 127.761 123.741 126.398C123.963 125.035 123.038 123.751 121.675 123.529L120.872 128.464ZM131.527 125.387C130.177 125.099 128.848 125.96 128.56 127.31C128.272 128.66 129.133 129.989 130.484 130.277L131.527 125.387ZM140.038 132.531C141.376 132.875 142.739 132.07 143.083 130.733C143.427 129.396 142.622 128.033 141.285 127.689L140.038 132.531ZM151.025 130.39C149.702 129.998 148.31 130.753 147.918 132.077C147.525 133.4 148.28 134.792 149.604 135.184L151.025 130.39ZM158.934 138.111C160.245 138.544 161.659 137.832 162.092 136.52C162.525 135.209 161.813 133.796 160.502 133.363L158.934 138.111ZM170.034 136.656C168.735 136.188 167.302 136.862 166.834 138.161C166.366 139.46 167.04 140.892 168.339 141.36L170.034 136.656ZM177.531 144.796C178.819 145.294 180.267 144.654 180.765 143.366C181.262 142.079 180.622 140.631 179.334 140.133L177.531 144.796ZM188.659 143.851C187.382 143.327 185.921 143.937 185.397 145.215C184.873 146.492 185.483 147.953 186.761 148.477L188.659 143.851ZM195.847 152.302C197.115 152.848 198.586 152.264 199.132 150.996C199.679 149.728 199.094 148.257 197.827 147.71L195.847 152.302ZM206.988 151.748C205.729 151.181 204.249 151.743 203.682 153.002C203.116 154.261 203.677 155.741 204.937 156.308L206.988 151.748ZM213.919 160.423C215.17 161.007 216.658 160.466 217.241 159.214C217.825 157.963 217.283 156.475 216.032 155.892L213.919 160.423ZM225.068 160.173C223.824 159.575 222.33 160.098 221.732 161.342C221.133 162.587 221.657 164.081 222.901 164.679L225.068 160.173ZM231.79 169.013C233.028 169.624 234.527 169.116 235.138 167.878C235.75 166.641 235.242 165.141 234.004 164.53L231.79 169.013ZM242.945 168.998C241.713 168.375 240.209 168.869 239.586 170.102C238.964 171.334 239.458 172.838 240.69 173.46L242.945 168.998ZM249.502 177.957C250.729 178.589 252.237 178.107 252.869 176.88C253.501 175.652 253.019 174.145 251.791 173.512L249.502 177.957ZM260.659 178.12C259.436 177.479 257.925 177.951 257.285 179.174C256.644 180.398 257.116 181.908 258.34 182.549L260.659 178.12ZM267.092 187.166C268.311 187.813 269.825 187.35 270.472 186.13C271.12 184.911 270.656 183.397 269.437 182.75L267.092 187.166ZM278.248 187.457C277.031 186.803 275.516 187.26 274.862 188.476C274.209 189.692 274.665 191.208 275.882 191.861L278.248 187.457ZM284.595 196.564C285.809 197.222 287.326 196.772 287.984 195.558C288.642 194.344 288.192 192.827 286.978 192.169L284.595 196.564ZM295.732 196.932C294.52 196.271 293.002 196.717 292.34 197.928C291.678 199.14 292.124 200.659 293.336 201.321L295.732 196.932ZM302.042 206.087C303.253 206.751 304.772 206.309 305.437 205.098C306.101 203.888 305.658 202.368 304.448 201.704L302.042 206.087ZM313.165 206.496C311.956 205.83 310.436 206.271 309.77 207.481C309.104 208.69 309.544 210.21 310.754 210.876L313.165 206.496ZM319.462 215.674C320.671 216.341 322.191 215.901 322.858 214.692C323.524 213.483 323.085 211.962 321.875 211.296L319.462 215.674ZM330.58 216.093C329.37 215.427 327.85 215.867 327.183 217.077C326.517 218.286 326.957 219.806 328.167 220.473L330.58 216.093ZM336.881 225.27C338.091 225.935 339.611 225.493 340.276 224.283C340.941 223.073 340.5 221.553 339.29 220.888L336.881 225.27ZM348.003 225.668C346.792 225.005 345.272 225.449 344.609 226.661C343.946 227.872 344.391 229.391 345.602 230.054L348.003 225.668ZM354.329 234.817C355.542 235.477 357.06 235.029 357.72 233.816C358.38 232.603 357.931 231.085 356.718 230.425L354.329 234.817ZM365.462 235.163C364.247 234.507 362.731 234.961 362.075 236.176C361.419 237.391 361.873 238.908 363.088 239.563L365.462 235.163ZM371.835 244.259C373.053 244.91 374.567 244.45 375.218 243.232C375.868 242.014 375.408 240.499 374.19 239.849L371.835 244.259ZM382.987 244.518C381.766 243.874 380.254 244.342 379.609 245.564C378.965 246.785 379.433 248.297 380.655 248.941L382.987 244.518ZM389.441 253.541C390.666 254.177 392.175 253.7 392.812 252.475C393.448 251.249 392.971 249.74 391.746 249.104L389.441 253.541ZM400.607 253.667C399.377 253.04 397.872 253.528 397.244 254.758C396.617 255.988 397.105 257.493 398.335 258.121L400.607 253.667ZM407.191 262.595C408.426 263.212 409.928 262.711 410.545 261.476C411.163 260.241 410.662 258.74 409.427 258.122L407.191 262.595ZM418.357 262.533C417.116 261.928 415.619 262.443 415.014 263.684C414.409 264.925 414.924 266.422 416.165 267.027L418.357 262.533ZM425.113 271.332C426.36 271.924 427.851 271.392 428.443 270.145C429.034 268.897 428.503 267.406 427.255 266.815L425.113 271.332ZM436.273 271.024C435.018 270.448 433.534 270.998 432.958 272.253C432.382 273.508 432.933 274.992 434.188 275.568L436.273 271.024ZM443.245 279.649C444.508 280.207 445.984 279.636 446.542 278.373C447.1 277.11 446.529 275.634 445.266 275.076L443.245 279.649ZM454.396 279.024C453.124 278.486 451.658 279.082 451.12 280.353C450.583 281.625 451.178 283.092 452.45 283.629L454.396 279.024ZM461.632 287.412C462.913 287.926 464.369 287.304 464.883 286.023C465.397 284.741 464.774 283.286 463.493 282.772L461.632 287.412ZM472.766 286.38C471.474 285.894 470.032 286.547 469.545 287.839C469.059 289.131 469.711 290.573 471.003 291.059L472.766 286.38ZM480.319 294.446C481.622 294.901 483.048 294.214 483.504 292.911C483.96 291.608 483.273 290.182 481.969 289.726L480.319 294.446ZM491.418 292.888C490.102 292.468 488.696 293.194 488.276 294.51C487.857 295.825 488.583 297.232 489.899 297.651L491.418 292.888ZM499.427 300.529C500.755 300.906 502.138 300.136 502.516 298.808C502.893 297.48 502.123 296.097 500.795 295.72L499.427 300.529ZM510.364 298.256C509.023 297.928 507.669 298.749 507.341 300.09C507.012 301.431 507.833 302.784 509.174 303.113L510.364 298.256ZM518.977 305.299C520.331 305.57 521.648 304.692 521.919 303.338C522.19 301.985 521.312 300.667 519.958 300.396L518.977 305.299ZM529.57 302.081C528.205 301.877 526.933 302.819 526.729 304.184C526.525 305.55 527.467 306.822 528.833 307.026L529.57 302.081ZM538.915 308.235C540.29 308.358 541.505 307.343 541.628 305.968C541.751 304.593 540.736 303.378 539.36 303.255L538.915 308.235ZM549.08 303.799C547.699 303.77 546.557 304.866 546.528 306.246C546.5 307.627 547.595 308.769 548.976 308.798L549.08 303.799ZM559.073 308.613C560.451 308.532 561.502 307.348 561.42 305.97C561.339 304.591 560.155 303.54 558.777 303.622L559.073 308.613ZM568.467 302.6C567.103 302.811 566.167 304.088 566.378 305.452C566.589 306.817 567.866 307.752 569.231 307.541L568.467 302.6ZM579.199 305.463C580.534 305.108 581.328 303.739 580.973 302.405C580.618 301.07 579.249 300.276 577.914 300.631L579.199 305.463ZM587.042 297.625C585.759 298.134 585.132 299.588 585.642 300.871C586.152 302.154 587.606 302.781 588.889 302.271L587.042 297.625ZM598.161 297.893C599.37 297.226 599.808 295.705 599.14 294.496C598.473 293.288 596.952 292.849 595.743 293.517L598.161 297.893ZM603.81 288.359C602.697 289.176 602.456 290.74 603.272 291.853C604.089 292.967 605.653 293.208 606.767 292.391L603.81 288.359ZM614.621 285.961C615.659 285.051 615.762 283.471 614.852 282.433C613.941 281.396 612.361 281.293 611.323 282.203L614.621 285.961ZM618.418 275.674C617.424 276.632 617.396 278.215 618.355 279.209C619.313 280.202 620.896 280.231 621.89 279.272L618.418 275.674ZM628.85 272.24C629.798 271.236 629.753 269.654 628.75 268.705C627.747 267.757 626.164 267.802 625.216 268.805L628.85 272.24ZM631.695 261.633C630.792 262.678 630.908 264.257 631.953 265.159C632.998 266.062 634.576 265.946 635.479 264.901L631.695 261.633ZM641.772 257.287C642.628 256.204 642.444 254.631 641.361 253.775C640.278 252.919 638.706 253.102 637.85 254.185L641.772 257.287ZM643.682 246.482C642.872 247.6 643.121 249.163 644.239 249.973C645.357 250.784 646.92 250.535 647.73 249.417L643.682 246.482ZM653.367 241.302C654.132 240.153 653.82 238.601 652.671 237.836C651.521 237.071 649.969 237.383 649.204 238.532L653.367 241.302ZM654.41 230.371C653.69 231.549 654.061 233.088 655.239 233.809C656.417 234.529 657.956 234.158 658.676 232.98L654.41 230.371ZM663.665 224.47C664.342 223.267 663.915 221.742 662.711 221.066C661.507 220.389 659.983 220.817 659.307 222.02L663.665 224.47ZM663.9 213.499C663.266 214.726 663.747 216.234 664.973 216.868C666.2 217.502 667.708 217.022 668.342 215.795L663.9 213.499ZM672.723 206.957C673.316 205.71 672.785 204.219 671.538 203.626C670.291 203.033 668.8 203.564 668.207 204.811L672.723 206.957ZM672.229 195.985C671.676 197.251 672.254 198.724 673.519 199.277C674.785 199.83 676.258 199.252 676.811 197.987L672.229 195.985ZM680.615 188.901C681.129 187.62 680.507 186.164 679.225 185.65C677.944 185.136 676.488 185.758 675.974 187.04L680.615 188.901ZM679.452 177.991C678.975 179.287 679.639 180.724 680.935 181.201C682.23 181.678 683.667 181.014 684.144 179.718L679.452 177.991ZM687.417 170.428C687.858 169.12 687.155 167.702 685.846 167.261C684.538 166.82 683.12 167.523 682.679 168.831L687.417 170.428ZM685.66 159.582C685.254 160.902 685.994 162.301 687.313 162.707C688.633 163.114 690.032 162.373 690.439 161.054L685.66 159.582ZM693.215 151.613C693.588 150.284 692.813 148.904 691.484 148.531C690.155 148.158 688.774 148.933 688.401 150.262L693.215 151.613ZM690.911 140.884C690.57 142.222 691.378 143.583 692.716 143.924C694.054 144.265 695.415 143.457 695.756 142.119L690.911 140.884ZM698.07 132.582C698.38 131.237 697.541 129.895 696.196 129.584C694.85 129.274 693.508 130.114 693.198 131.459L698.07 132.582ZM695.28 121.946C694.999 123.298 695.868 124.621 697.22 124.902C698.572 125.182 699.895 124.313 700.175 122.961L695.28 121.946ZM702.07 113.303C702.321 111.946 701.424 110.641 700.066 110.39C698.709 110.139 697.404 111.035 697.153 112.393L702.07 113.303ZM698.825 102.806C698.602 104.169 699.525 105.455 700.888 105.678C702.251 105.901 703.536 104.978 703.759 103.615L698.825 102.806ZM705.251 93.9016C705.447 92.5348 704.498 91.268 703.132 91.0719C701.765 90.8759 700.498 91.8249 700.302 93.1916L705.251 93.9016ZM701.589 83.5518C701.419 84.9221 702.393 86.1703 703.763 86.3397C705.133 86.5092 706.382 85.5358 706.551 84.1655L701.589 83.5518ZM707.664 74.4077C707.807 73.0345 706.81 71.805 705.437 71.6616C704.064 71.5182 702.834 72.5151 702.691 73.8884L707.664 74.4077ZM703.611 64.2013C703.493 65.577 704.513 66.7877 705.888 66.9054C707.264 67.0231 708.475 66.0034 708.593 64.6277L703.611 64.2013ZM709.34 54.8253C709.432 53.4477 708.39 52.2562 707.012 52.164C705.635 52.0718 704.443 53.1138 704.351 54.4914L709.34 54.8253ZM704.911 44.765C704.845 46.1441 705.909 47.316 707.288 47.3826C708.667 47.4491 709.839 46.3851 709.906 45.006L704.911 44.765ZM710.287 35.1931C710.327 33.8129 709.241 32.6613 707.861 32.6209C706.481 32.5804 705.329 33.6664 705.289 35.0465L710.287 35.1931ZM705.478 25.3885C705.465 26.7691 706.573 27.8992 707.954 27.9126C709.334 27.9259 710.464 26.8175 710.478 25.4369L705.478 25.3885ZM710.468 15.5318C710.451 14.1512 709.318 13.0456 707.938 13.0624C706.557 13.0793 705.451 14.2121 705.468 15.5927L710.468 15.5318ZM705.229 5.97382C705.283 7.35347 706.445 8.42796 707.825 8.37377C709.205 8.31958 710.279 7.15723 710.225 5.77758L705.229 5.97382ZM37.7332 432C40.087 431.158 40.087 431.158 40.087 431.158L40.087 431.158C40.087 431.158 40.087 431.158 40.087 431.158C40.0869 431.157 40.0869 431.157 40.0868 431.157C40.0866 431.156 40.0862 431.155 40.0857 431.154C40.0848 431.151 40.0832 431.147 40.0812 431.141C40.077 431.13 40.0706 431.112 40.062 431.088C40.0449 431.039 40.019 430.966 39.9846 430.869C39.9159 430.674 39.8133 430.382 39.6793 429.996C39.4112 429.224 39.0171 428.078 38.5158 426.586L33.7763 428.179C34.2832 429.687 34.6827 430.85 34.9562 431.637C35.0929 432.03 35.1981 432.33 35.2694 432.532C35.305 432.633 35.3322 432.71 35.3507 432.762C35.3599 432.788 35.3669 432.807 35.3717 432.821C35.3741 432.828 35.376 432.833 35.3773 432.836C35.3779 432.838 35.3784 432.84 35.3788 432.841C35.3789 432.841 35.3791 432.842 35.3792 432.842C35.3792 432.842 35.3793 432.842 35.3793 432.842C35.3793 432.842 35.3794 432.842 35.3794 432.842C35.3794 432.842 35.3794 432.842 37.7332 432ZM35.3861 416.969C34.4832 414.112 33.4804 410.871 32.405 407.287L27.616 408.724C28.6988 412.332 29.7087 415.597 30.6185 418.475L35.3861 416.969ZM29.5521 397.539C28.6726 394.458 27.7656 391.206 26.8422 387.801L22.0165 389.11C22.9459 392.537 23.8589 395.81 24.744 398.911L29.5521 397.539ZM24.2684 378.059C23.4559 374.9 22.6391 371.64 21.8252 368.29L16.9666 369.471C17.7859 372.843 18.6082 376.124 19.426 379.304L24.2684 378.059ZM19.5123 358.479C18.7761 355.256 18.0482 351.967 17.3341 348.621L12.4441 349.664C13.1634 353.035 13.8966 356.347 14.6379 359.593L19.5123 358.479ZM15.2981 338.717C14.6513 335.444 14.022 332.128 13.4147 328.776L8.49478 329.667C9.10694 333.047 9.74128 336.389 10.393 339.686L15.2981 338.717ZM11.7042 318.861C11.1645 315.565 10.6497 312.242 10.1642 308.898L5.21609 309.617C5.70612 312.991 6.22551 316.344 6.76993 319.669L11.7042 318.861ZM8.81031 298.9C8.39313 295.573 8.0085 292.233 7.66047 288.886L2.68728 289.403C3.03911 292.786 3.42779 296.161 3.84914 299.522L8.81031 298.9ZM6.73248 278.86C6.46163 275.508 6.23142 272.156 6.04589 268.811L1.05357 269.088C1.24153 272.477 1.47464 275.871 1.74872 279.262L6.73248 278.86ZM5.62631 258.763C5.53356 255.401 5.49065 252.053 5.5017 248.725L0.501727 248.708C0.490498 252.09 0.534117 255.49 0.628209 258.901L5.62631 258.763ZM5.70622 238.668C5.83452 235.295 6.02428 231.952 6.27993 228.645L1.2948 228.26C1.03386 231.635 0.840475 235.044 0.709831 238.478L5.70622 238.668ZM7.26777 218.686C7.67564 215.347 8.1588 212.055 8.72204 208.819L3.79608 207.962C3.2175 211.286 2.72219 214.662 2.30467 218.079L7.26777 218.686ZM10.7175 199.025C11.4899 195.742 12.3565 192.531 13.3226 189.399L8.54485 187.925C7.54315 191.172 6.64719 194.493 5.85038 197.88L10.7175 199.025ZM16.6141 180.03C17.85 176.922 19.2015 173.913 20.6747 171.014L16.2173 168.749C14.6707 171.792 13.2568 174.941 11.9679 178.183L16.6141 180.03ZM25.5816 162.476C27.3775 159.707 29.3116 157.067 31.3909 154.567L27.5466 151.37C25.3355 154.029 23.285 156.828 21.3868 159.755L25.5816 162.476ZM38.1178 147.453C40.4954 145.246 43.0275 143.186 45.7218 141.286L42.8404 137.2C39.9605 139.231 37.2549 141.431 34.7159 143.789L38.1178 147.453ZM54.0846 136.188C56.9058 134.713 59.8789 133.385 63.0112 132.214L61.2607 127.53C57.9383 128.772 54.7759 130.184 51.7681 131.757L54.0846 136.188ZM72.3619 129.315C73.9682 128.912 75.6111 128.546 77.2912 128.217L76.3299 123.31C74.5659 123.655 72.8379 124.041 71.1454 124.465L72.3619 129.315ZM77.2912 128.217C78.841 127.913 80.4106 127.649 81.9994 127.423L81.2956 122.472C79.6229 122.71 77.9675 122.989 76.3299 123.31L77.2912 128.217ZM91.6961 126.525C94.8662 126.379 98.1032 126.366 101.405 126.481L101.578 121.484C98.151 121.365 94.7791 121.378 91.4663 121.53L91.6961 126.525ZM111.107 127.159C114.31 127.49 117.566 127.927 120.872 128.464L121.675 123.529C118.279 122.977 114.927 122.527 111.621 122.185L111.107 127.159ZM130.484 130.277C133.629 130.948 136.815 131.701 140.038 132.531L141.285 127.689C137.998 126.842 134.745 126.073 131.527 125.387L130.484 130.277ZM149.604 135.184C152.684 136.097 155.794 137.074 158.934 138.111L160.502 133.363C157.316 132.311 154.157 131.319 151.025 130.39L149.604 135.184ZM168.339 141.36C171.379 142.456 174.443 143.602 177.531 144.796L179.334 140.133C176.213 138.926 173.112 137.766 170.034 136.656L168.339 141.36ZM186.761 148.477C189.77 149.712 192.799 150.988 195.847 152.302L197.827 147.71C194.753 146.385 191.697 145.098 188.659 143.851L186.761 148.477ZM204.937 156.308C207.915 157.647 210.91 159.02 213.919 160.423L216.032 155.892C213.003 154.48 209.988 153.097 206.988 151.748L204.937 156.308ZM222.901 164.679C225.852 166.098 228.815 167.544 231.79 169.013L234.004 164.53C231.014 163.053 228.035 161.6 225.068 160.173L222.901 164.679ZM240.69 173.46C243.618 174.94 246.555 176.439 249.502 177.957L251.791 173.512C248.834 171.989 245.885 170.483 242.945 168.998L240.69 173.46ZM258.34 182.549C261.25 184.073 264.167 185.613 267.092 187.166L269.437 182.75C266.505 181.193 263.579 179.649 260.659 178.12L258.34 182.549ZM275.882 191.861C278.781 193.419 281.686 194.987 284.595 196.564L286.978 192.169C284.064 190.589 281.153 189.017 278.248 187.457L275.882 191.861ZM293.336 201.321C296.235 202.903 299.137 204.493 302.042 206.087L304.448 201.704C301.54 200.108 298.635 198.517 295.732 196.932L293.336 201.321ZM310.754 210.876C313.655 212.474 316.558 214.073 319.462 215.674L321.875 211.296C318.972 209.695 316.068 208.094 313.165 206.496L310.754 210.876ZM328.167 220.473C331.072 222.073 333.977 223.673 336.881 225.27L339.29 220.888C336.388 219.293 333.484 217.694 330.58 216.093L328.167 220.473ZM345.602 230.054C348.513 231.647 351.422 233.236 354.329 234.817L356.718 230.425C353.816 228.846 350.911 227.26 348.003 225.668L345.602 230.054ZM363.088 239.563C366.008 241.139 368.923 242.705 371.835 244.259L374.19 239.849C371.286 238.298 368.376 236.735 365.462 235.163L363.088 239.563ZM380.655 248.941C383.589 250.489 386.518 252.022 389.441 253.541L391.746 249.104C388.833 247.591 385.913 246.061 382.987 244.518L380.655 248.941ZM398.335 258.121C401.295 259.631 404.248 261.124 407.191 262.595L409.427 258.122C406.496 256.658 403.556 255.172 400.607 253.667L398.335 258.121ZM416.165 267.027C419.158 268.487 422.141 269.923 425.113 271.332L427.255 266.815C424.301 265.414 421.335 263.986 418.357 262.533L416.165 267.027ZM434.188 275.568C437.22 276.96 440.24 278.321 443.245 279.649L445.266 275.076C442.283 273.758 439.285 272.406 436.273 271.024L434.188 275.568ZM452.45 283.629C455.527 284.93 458.588 286.192 461.632 287.412L463.493 282.772C460.48 281.563 457.447 280.313 454.396 279.024L452.45 283.629ZM471.003 291.059C474.129 292.237 477.235 293.367 480.319 294.446L481.969 289.726C478.925 288.661 475.857 287.545 472.766 286.38L471.003 291.059ZM489.899 297.651C493.101 298.672 496.278 299.633 499.427 300.529L500.795 295.72C497.699 294.839 494.573 293.894 491.418 292.888L489.899 297.651ZM509.174 303.113C512.475 303.922 515.744 304.652 518.977 305.299L519.958 300.396C516.799 299.764 513.6 299.049 510.364 298.256L509.174 303.113ZM528.833 307.026C532.237 307.533 535.599 307.939 538.915 308.235L539.36 303.255C536.148 302.968 532.884 302.575 529.57 302.081L528.833 307.026ZM548.976 308.798C552.396 308.869 555.763 308.81 559.073 308.613L558.777 303.622C555.608 303.81 552.375 303.867 549.08 303.799L548.976 308.798ZM569.231 307.541C572.624 307.017 575.948 306.328 579.199 305.463L577.914 300.631C574.844 301.448 571.694 302.102 568.467 302.6L569.231 307.541ZM588.889 302.271C592.066 301.009 595.159 299.553 598.161 297.893L595.743 293.517C592.929 295.072 590.028 296.438 587.042 297.625L588.889 302.271ZM606.767 292.391C608.151 291.376 609.512 290.31 610.849 289.193L607.642 285.357C606.386 286.406 605.109 287.407 603.81 288.359L606.767 292.391ZM610.849 289.193C612.122 288.128 613.38 287.051 614.621 285.961L611.323 282.203C610.112 283.267 608.885 284.318 607.642 285.357L610.849 289.193ZM621.89 279.272C624.273 276.973 626.592 274.628 628.85 272.24L625.216 268.805C623.01 271.138 620.745 273.429 618.418 275.674L621.89 279.272ZM635.479 264.901C637.638 262.402 639.734 259.863 641.772 257.287L637.85 254.185C635.856 256.706 633.805 259.19 631.695 261.633L635.479 264.901ZM647.73 249.417C649.668 246.745 651.546 244.038 653.367 241.302L649.204 238.532C647.42 241.214 645.58 243.865 643.682 246.482L647.73 249.417ZM658.676 232.98C660.395 230.168 662.058 227.331 663.665 224.47L659.307 222.02C657.728 224.829 656.097 227.614 654.41 230.371L658.676 232.98ZM668.342 215.795C669.855 212.867 671.315 209.92 672.723 206.957L668.207 204.811C666.822 207.725 665.387 210.622 663.9 213.499L668.342 215.795ZM676.811 197.987C678.129 194.969 679.396 191.939 680.615 188.901L675.974 187.04C674.774 190.032 673.526 193.015 672.229 195.985L676.811 197.987ZM684.144 179.718C685.283 176.624 686.373 173.526 687.417 170.428L682.679 168.831C681.649 171.887 680.574 174.941 679.452 177.991L684.144 179.718ZM690.439 161.054C691.409 157.901 692.334 154.753 693.215 151.613L688.401 150.262C687.531 153.363 686.618 156.471 685.66 159.582L690.439 161.054ZM695.756 142.119C696.571 138.925 697.341 135.744 698.07 132.582L693.198 131.459C692.477 134.585 691.716 137.728 690.911 140.884L695.756 142.119ZM700.175 122.961C700.848 119.715 701.479 116.494 702.07 113.303L697.153 112.393C696.569 115.55 695.945 118.736 695.28 121.946L700.175 122.961ZM703.759 103.615C704.297 100.335 704.793 97.0955 705.251 93.9016L700.302 93.1916C699.848 96.3536 699.357 99.5606 698.825 102.806L703.759 103.615ZM706.551 84.1655C706.961 80.8504 707.331 77.5953 707.664 74.4077L702.691 73.8884C702.361 77.0454 701.995 80.2691 701.589 83.5518L706.551 84.1655ZM708.593 64.6277C708.88 61.2643 709.128 57.9935 709.34 54.8253L704.351 54.4914C704.141 57.6297 703.896 60.8698 703.611 64.2013L708.593 64.6277ZM709.906 45.006C710.071 41.5742 710.196 38.2978 710.287 35.1931L705.289 35.0465C705.199 38.1209 705.075 41.3658 704.911 44.765L709.906 45.006ZM710.478 25.4369C710.513 21.7713 710.503 18.4559 710.468 15.5318L705.468 15.5927C705.503 18.482 705.513 21.761 705.478 25.3885L710.478 25.4369ZM710.225 5.77758C710.162 4.17898 710.1 2.94666 710.054 2.11104C710.031 1.69323 710.012 1.37457 709.998 1.15889C709.991 1.05104 709.986 0.96894 709.982 0.913051C709.98 0.885106 709.979 0.863715 709.978 0.848937C709.977 0.841548 709.977 0.835812 709.977 0.831737C709.977 0.8297 709.976 0.828077 709.976 0.826871C709.976 0.826268 709.976 0.825768 709.976 0.825373C709.976 0.825176 709.976 0.825004 709.976 0.824859C709.976 0.824786 709.976 0.824697 709.976 0.82466C709.976 0.824577 709.976 0.824501 707.482 1C704.989 1.1755 704.989 1.17544 704.989 1.17538C704.989 1.17537 704.989 1.17532 704.989 1.1753C704.989 1.17526 704.989 1.17524 704.989 1.17525C704.989 1.17527 704.989 1.1754 704.989 1.17563C704.989 1.17608 704.989 1.17696 704.989 1.17825C704.989 1.18082 704.989 1.18505 704.99 1.19094C704.99 1.2027 704.992 1.22106 704.993 1.24597C704.997 1.29577 705.002 1.37173 705.008 1.47338C705.021 1.67667 705.039 1.98268 705.062 2.38762C705.107 3.1975 705.167 4.40303 705.229 5.97382L710.225 5.77758Z" fill="#F0DCFF"/>
</svg>
