<svg width="588" height="408" viewBox="0 0 588 408" fill="none" xmlns="http://www.w3.org/2000/svg">
<path d="M569.159 151.42L567.611 153.383L569.159 151.42ZM225.731 394.951C225.152 396.204 225.698 397.69 226.952 398.269L247.375 407.711C248.628 408.29 250.114 407.744 250.693 406.49C251.272 405.237 250.726 403.752 249.473 403.172L231.319 394.78L239.711 376.626C240.291 375.373 239.744 373.887 238.491 373.307C237.238 372.728 235.752 373.274 235.173 374.528L225.731 394.951ZM9.80842 0.297375C8.92356 1.91 8.10253 3.50017 7.34463 5.06829L11.8464 7.24408C12.565 5.75727 13.3463 4.2436 14.1919 2.70263L9.80842 0.297375ZM3.54755 14.2198C2.35033 17.7102 1.49387 21.0878 0.971936 24.3562L5.90938 25.1446C6.38161 22.1874 7.16335 19.089 8.27707 15.842L3.54755 14.2198ZM0.454406 34.7235C0.695835 38.2912 1.39076 41.6951 2.51766 44.9377L7.24057 43.2963C6.26253 40.4821 5.65489 37.5172 5.443 34.3859L0.454406 34.7235ZM7.21306 54.2434C9.10212 57.0367 11.353 59.6653 13.932 62.1403L17.3941 58.5328C15.0423 56.2759 13.0264 53.9141 11.3549 51.4424L7.21306 54.2434ZM21.9596 68.6627C24.6077 70.5056 27.4698 72.2527 30.5298 73.9105L32.9116 69.5143C29.9959 67.9346 27.2944 66.2837 24.8158 64.5587L21.9596 68.6627ZM39.527 78.2919C42.5319 79.6111 45.6834 80.868 48.972 82.0664L50.6839 77.3686C47.4859 76.2032 44.4345 74.9858 41.537 73.7137L39.527 78.2919ZM58.3311 85.2106C61.4382 86.1738 64.6468 87.0951 67.9507 87.977L69.2402 83.1461C65.995 82.2799 62.8504 81.3768 59.8116 80.4348L58.3311 85.2106ZM77.6035 90.3818C80.7643 91.1169 84 91.8216 87.3061 92.4977L88.3078 87.5991C85.0424 86.9313 81.8504 86.2361 78.7362 85.5117L77.6035 90.3818ZM97.0661 94.3756C100.27 94.9556 103.533 95.5124 106.85 96.0471L107.646 91.1109C104.358 90.5809 101.128 90.0295 97.9568 89.4555L97.0661 94.3756ZM116.628 97.539C119.874 98.0076 123.167 98.4577 126.503 98.8904L127.146 93.932C123.832 93.5021 120.563 93.0553 117.342 92.5903L116.628 97.539ZM136.26 100.093C139.546 100.478 142.869 100.848 146.227 101.204L146.754 96.2322C143.413 95.8781 140.108 95.5101 136.842 95.1274L136.26 100.093ZM155.953 102.188C159.225 102.504 162.527 102.808 165.857 103.101L166.295 98.12C162.979 97.8282 159.69 97.5256 156.433 97.2113L155.953 102.188ZM175.694 103.929C178.951 104.192 182.231 104.445 185.533 104.689L185.902 99.7028C182.611 99.459 179.341 99.2068 176.095 98.9453L175.694 103.929ZM195.467 105.396C198.714 105.618 201.979 105.832 205.261 106.04L205.577 101.05C202.303 100.843 199.046 100.629 195.807 100.407L195.467 105.396ZM215.153 106.645C218.428 106.838 221.718 107.026 225.02 107.209L225.296 102.216C222 102.034 218.716 101.847 215.447 101.654L215.153 106.645ZM234.865 107.737C238.157 107.909 241.46 108.077 244.771 108.241L245.019 103.247C241.711 103.083 238.413 102.916 235.125 102.744L234.865 107.737ZM254.609 108.718C257.891 108.873 261.18 109.026 264.474 109.177L264.703 104.183C261.411 104.032 258.125 103.879 254.846 103.723L254.609 108.718ZM274.355 109.624C277.637 109.77 280.922 109.915 284.209 110.059L284.428 105.064C281.142 104.92 277.858 104.775 274.578 104.629L274.355 109.624ZM294.072 110.49C297.363 110.634 300.653 110.777 303.941 110.921L304.159 105.926C300.871 105.782 297.58 105.639 294.29 105.495L294.072 110.49ZM313.804 111.355C317.089 111.5 320.37 111.647 323.646 111.796L323.872 106.801C320.594 106.652 317.311 106.505 314.025 106.36L313.804 111.355ZM333.528 112.251C336.82 112.405 340.104 112.562 343.38 112.722L343.623 107.728C340.344 107.568 337.056 107.411 333.762 107.257L333.528 112.251ZM353.211 113.214C356.519 113.383 359.816 113.557 363.101 113.735L363.372 108.743C360.082 108.564 356.78 108.39 353.467 108.22L353.211 113.214ZM372.916 114.285C376.22 114.476 379.508 114.672 382.78 114.875L383.089 109.885C379.81 109.682 376.515 109.485 373.205 109.293L372.916 114.285ZM392.637 115.509C395.907 115.727 399.159 115.953 402.389 116.186L402.75 111.199C399.509 110.965 396.249 110.739 392.97 110.52L392.637 115.509ZM412.313 116.934C415.597 117.192 418.856 117.46 422.089 117.737L422.516 112.756C419.271 112.477 416 112.209 412.704 111.95L412.313 116.934ZM431.922 118.621C435.229 118.932 438.504 119.254 441.746 119.59L442.26 114.616C439.002 114.279 435.712 113.955 432.39 113.643L431.922 118.621ZM451.451 120.644C454.784 121.025 458.077 121.42 461.327 121.831L461.955 116.871C458.683 116.457 455.37 116.059 452.018 115.677L451.451 120.644ZM470.946 123.114C474.285 123.584 477.573 124.072 480.807 124.581L481.584 119.642C478.322 119.129 475.007 118.636 471.642 118.163L470.946 123.114ZM490.394 126.178C493.712 126.764 496.965 127.374 500.149 128.009L501.128 123.106C497.905 122.463 494.615 121.846 491.263 121.255L490.394 126.178ZM509.632 130.027C512.932 130.776 516.144 131.556 519.265 132.37L520.527 127.532C517.351 126.703 514.086 125.91 510.738 125.151L509.632 130.027ZM528.498 134.96C531.769 135.948 534.918 136.98 537.938 138.057L539.618 133.348C536.514 132.24 533.286 131.183 529.943 130.174L528.498 134.96ZM546.923 141.567C549.994 142.883 552.892 144.258 555.608 145.695L557.946 141.275C555.096 139.768 552.074 138.335 548.892 136.971L546.923 141.567ZM563.912 150.67C565.207 151.555 566.44 152.459 567.611 153.383L570.708 149.458C569.442 148.459 568.116 147.487 566.733 146.542L563.912 150.67ZM567.611 153.383C568.985 154.467 570.252 155.562 571.415 156.666L574.857 153.039C573.577 151.824 572.194 150.63 570.708 149.458L567.611 153.383ZM577.454 163.793C579.233 166.516 580.474 169.286 581.232 172.097L586.06 170.795C585.157 167.446 583.69 164.196 581.64 161.059L577.454 163.793ZM582.084 181.136C581.881 184.079 581.236 187.111 580.16 190.23L584.887 191.86C586.087 188.38 586.836 184.915 587.073 181.48L582.084 181.136ZM576.199 198.895C574.699 201.558 572.927 204.264 570.897 207.009L574.917 209.982C577.053 207.094 578.941 204.215 580.556 201.349L576.199 198.895ZM564.683 214.641C562.566 217.029 560.278 219.437 557.827 221.861L561.343 225.416C563.863 222.923 566.229 220.435 568.425 217.957L564.683 214.641ZM550.711 228.544C548.309 230.694 545.793 232.852 543.169 235.017L546.351 238.874C549.023 236.669 551.59 234.467 554.046 232.269L550.711 228.544ZM535.342 241.254C532.789 243.221 530.155 245.192 527.447 247.165L530.39 251.207C533.133 249.209 535.803 247.211 538.394 245.214L535.342 241.254ZM519.245 252.986C516.575 254.835 513.844 256.684 511.058 258.532L513.822 262.699C516.634 260.834 519.392 258.966 522.091 257.097L519.245 252.986ZM502.652 263.997C499.888 265.76 497.077 267.52 494.224 269.277L496.846 273.535C499.72 271.765 502.553 269.99 505.341 268.212L502.652 263.997ZM485.661 274.467C482.83 276.156 479.963 277.841 477.066 279.52L479.573 283.846C482.488 282.156 485.373 280.461 488.223 278.76L485.661 274.467ZM468.376 284.489C465.494 286.115 462.587 287.735 459.657 289.348L462.069 293.728C465.013 292.107 467.936 290.479 470.833 288.844L468.376 284.489ZM450.862 294.135C447.94 295.707 445 297.271 442.046 298.827L444.376 303.251C447.343 301.688 450.296 300.117 453.231 298.538L450.862 294.135ZM433.166 303.456C430.21 304.982 427.242 306.498 424.267 308.005L426.526 312.465C429.512 310.953 432.491 309.431 435.459 307.899L433.166 303.456ZM415.322 312.493C412.333 313.98 409.34 315.455 406.347 316.919L408.543 321.411C411.546 319.942 414.549 318.462 417.549 316.97L415.322 312.493ZM397.353 321.28C394.334 322.732 391.317 324.172 388.306 325.598L390.446 330.117C393.465 328.687 396.491 327.243 399.521 325.786L397.353 321.28ZM379.277 329.842C376.226 331.265 373.186 332.672 370.16 334.064L372.249 338.607C375.283 337.211 378.332 335.8 381.391 334.373L379.277 329.842ZM361.101 338.201C358.022 339.598 354.961 340.976 351.923 342.336L353.965 346.9C357.011 345.537 360.079 344.155 363.166 342.755L361.101 338.201ZM342.83 346.378C339.725 347.749 336.648 349.099 333.605 350.426L335.603 355.009C338.654 353.679 341.737 352.326 344.85 350.951L342.83 346.378ZM324.462 354.388C321.339 355.733 318.257 357.052 315.223 358.343L317.18 362.944C320.221 361.65 323.309 360.328 326.44 358.98L324.462 354.388ZM305.999 362.243C302.875 363.555 299.811 364.835 296.813 366.08L298.731 370.698C301.735 369.45 304.806 368.168 307.937 366.852L305.999 362.243ZM287.471 369.937C284.312 371.233 281.243 372.484 278.272 373.688L280.15 378.322C283.127 377.115 286.203 375.861 289.368 374.562L287.471 369.937ZM269.005 377.422C265.714 378.739 262.577 379.987 259.609 381.16L261.447 385.81C264.422 384.634 267.565 383.384 270.863 382.064L269.005 377.422ZM250.259 384.83C246.797 386.18 243.671 387.388 240.918 388.444L242.71 393.112C245.471 392.053 248.604 390.842 252.075 389.489L250.259 384.83ZM231.732 391.938C230.234 392.502 229.084 392.931 228.309 393.22C227.922 393.364 227.628 393.472 227.432 393.545C227.334 393.581 227.26 393.609 227.211 393.627C227.186 393.636 227.168 393.643 227.156 393.647C227.149 393.649 227.145 393.651 227.142 393.652C227.141 393.653 227.139 393.653 227.139 393.653C227.138 393.653 227.138 393.654 227.138 393.654C227.138 393.654 227.138 393.654 227.138 393.654C227.138 393.654 227.138 393.654 227.138 393.654C227.138 393.654 227.138 393.654 228.001 396C228.863 398.346 228.863 398.346 228.863 398.346C228.863 398.346 228.864 398.346 228.864 398.346C228.864 398.346 228.864 398.346 228.864 398.346C228.864 398.346 228.864 398.346 228.865 398.346C228.866 398.346 228.867 398.345 228.869 398.344C228.872 398.343 228.877 398.341 228.883 398.339C228.896 398.334 228.915 398.327 228.941 398.318C228.991 398.299 229.066 398.272 229.166 398.235C229.365 398.161 229.662 398.051 230.052 397.906C230.833 397.616 231.989 397.184 233.494 396.618L231.732 391.938Z" fill="#F0DCFF"/>
</svg>
