<svg width="404" height="302" viewBox="0 0 404 302" fill="none" xmlns="http://www.w3.org/2000/svg">
<g filter="url(#filter0_d_144_39)">
<path d="M16.5358 275.954C15.6817 277.038 15.8686 278.61 16.9534 279.464L34.6308 293.384C35.7156 294.238 37.2874 294.051 38.1416 292.967C38.9958 291.882 38.8089 290.31 37.7241 289.456L22.0108 277.083L34.3838 261.369C35.238 260.285 35.0511 258.713 33.9663 257.859C32.8815 257.004 31.3097 257.191 30.4555 258.276L16.5358 275.954ZM310.555 149.427L311.015 146.969L310.555 149.427ZM18.5 277.5C18.7952 279.983 18.7953 279.983 18.7953 279.983C18.7953 279.983 18.7953 279.983 18.7953 279.983C18.7954 279.983 18.7955 279.983 18.7956 279.983C18.7958 279.983 18.7961 279.983 18.7965 279.983C18.7974 279.983 18.7986 279.982 18.8002 279.982C18.8034 279.982 18.8081 279.981 18.8144 279.981C18.8269 279.979 18.8456 279.977 18.8703 279.974C18.9198 279.968 18.9937 279.959 19.0916 279.947C19.2872 279.924 19.5787 279.889 19.9628 279.842C20.7309 279.749 21.8696 279.611 23.3531 279.428L22.7415 274.465C21.2618 274.648 20.1268 274.786 19.3621 274.879C18.9798 274.925 18.69 274.96 18.4961 274.983C18.3991 274.995 18.326 275.003 18.2774 275.009C18.253 275.012 18.2348 275.014 18.2227 275.016C18.2166 275.016 18.2121 275.017 18.2091 275.017C18.2076 275.017 18.2065 275.018 18.2058 275.018C18.2054 275.018 18.2051 275.018 18.205 275.018C18.2049 275.018 18.2048 275.018 18.2048 275.018C18.2048 275.018 18.2048 275.018 18.2048 275.018C18.2048 275.018 18.2048 275.018 18.5 277.5ZM33.4826 278.158C36.3622 277.791 39.6248 277.372 43.234 276.901L42.5878 271.943C38.9838 272.413 35.7261 272.832 32.8512 273.198L33.4826 278.158ZM52.8577 275.634C55.9469 275.223 59.2109 274.785 62.6347 274.32L61.9626 269.366C58.5432 269.829 55.2834 270.267 52.1983 270.678L52.8577 275.634ZM72.6219 272.952C75.7273 272.523 78.9349 272.075 82.236 271.611L81.539 266.66C78.2421 267.124 75.0385 267.57 71.937 267.999L72.6219 272.952ZM92.104 270.209C95.2801 269.754 98.5271 269.284 101.838 268.801L101.116 263.853C97.8094 264.336 94.5665 264.805 91.3945 265.259L92.104 270.209ZM111.652 267.356C114.853 266.88 118.105 266.393 121.402 265.894L120.654 260.951C117.362 261.449 114.114 261.935 110.917 262.41L111.652 267.356ZM131.209 264.397C134.418 263.903 137.664 263.398 140.94 262.884L140.165 257.944C136.893 258.458 133.653 258.962 130.447 259.456L131.209 264.397ZM150.756 261.329C153.97 260.815 157.208 260.292 160.466 259.76L159.661 254.825C156.408 255.356 153.175 255.878 149.967 256.391L150.756 261.329ZM170.282 258.143C173.501 257.607 176.735 257.064 179.981 256.512L179.143 251.583C175.903 252.133 172.675 252.676 169.461 253.211L170.282 258.143ZM189.748 254.836C192.985 254.274 196.229 253.705 199.477 253.128L198.604 248.205C195.362 248.78 192.124 249.348 188.893 249.909L189.748 254.836ZM209.206 251.382C212.453 250.793 215.699 250.196 218.941 249.593L218.027 244.678C214.792 245.279 211.553 245.874 208.313 246.463L209.206 251.382ZM228.658 247.763C231.899 247.144 235.133 246.519 238.355 245.888L237.394 240.981C234.18 241.611 230.955 242.234 227.721 242.851L228.658 247.763ZM248.084 243.955C251.312 243.304 254.525 242.647 257.717 241.984L256.701 237.088C253.518 237.749 250.315 238.404 247.096 239.053L248.084 243.955ZM267.468 239.926C270.698 239.233 273.903 238.534 277.079 237.829L275.995 232.948C272.832 233.65 269.638 234.347 266.419 235.037L267.468 239.926ZM286.794 235.633C290.029 234.887 293.228 234.136 296.385 233.378L295.219 228.516C292.077 229.27 288.893 230.018 285.672 230.76L286.794 235.633ZM306.053 231.007C309.29 230.195 312.475 229.377 315.603 228.553L314.329 223.718C311.221 224.537 308.055 225.35 304.836 226.157L306.053 231.007ZM325.23 225.946C328.454 225.048 331.605 224.143 334.677 223.232L333.256 218.438C330.212 219.341 327.087 220.238 323.888 221.129L325.23 225.946ZM344.283 220.279C347.476 219.259 350.564 218.232 353.538 217.198L351.895 212.476C348.966 213.494 345.918 214.508 342.762 215.516L344.283 220.279ZM363.049 213.711C366.329 212.44 369.427 211.157 372.328 209.864L370.292 205.297C367.477 206.552 364.455 207.803 361.242 209.049L363.049 213.711ZM381.303 205.48C384.571 203.712 387.472 201.913 389.946 200.079L386.97 196.062C384.731 197.721 382.041 199.396 378.924 201.082L381.303 205.48ZM397.555 192.401C399.85 188.784 400.524 184.859 398.937 180.894L394.295 182.751C395.179 184.962 394.931 187.204 393.334 189.722L397.555 192.401ZM391.992 172.566C389.613 170.742 386.68 168.96 383.187 167.211L380.948 171.681C384.24 173.33 386.885 174.952 388.951 176.535L391.992 172.566ZM373.658 163.046C370.87 161.969 367.839 160.897 364.558 159.83L363.012 164.585C366.218 165.627 369.162 166.669 371.855 167.71L373.658 163.046ZM354.863 156.9C351.895 156.062 348.762 155.228 345.462 154.396L344.24 159.244C347.499 160.066 350.586 160.888 353.506 161.712L354.863 156.9ZM335.434 151.995C332.471 151.32 329.392 150.647 326.197 149.976L325.169 154.869C328.339 155.535 331.389 156.202 334.324 156.87L335.434 151.995ZM316.255 147.969C314.538 147.635 312.792 147.302 311.015 146.969L310.095 151.884C311.861 152.215 313.596 152.545 315.301 152.877L316.255 147.969ZM311.015 146.969C309.367 146.661 307.728 146.352 306.098 146.041L305.162 150.953C306.798 151.264 308.442 151.575 310.095 151.884L311.015 146.969ZM296.423 144.167C293.234 143.538 290.08 142.905 286.961 142.269L285.962 147.168C289.092 147.807 292.256 148.441 295.456 149.072L296.423 144.167ZM277.357 140.276C274.119 139.592 270.92 138.904 267.76 138.213L266.691 143.097C269.863 143.791 273.074 144.482 276.323 145.168L277.357 140.276ZM258.394 136.127C255.133 135.388 251.914 134.645 248.737 133.899L247.593 138.766C250.783 139.516 254.015 140.262 257.289 141.004L258.394 136.127ZM239.274 131.634C236.092 130.858 232.953 130.078 229.857 129.295L228.631 134.142C231.741 134.929 234.894 135.712 238.09 136.491L239.274 131.634ZM220.319 126.836C217.186 126.013 214.099 125.186 211.059 124.356L209.742 129.179C212.798 130.014 215.9 130.844 219.048 131.672L220.319 126.836ZM201.505 121.696C198.362 120.803 195.269 119.907 192.228 119.008L190.81 123.803C193.869 124.707 196.979 125.608 200.139 126.506L201.505 121.696ZM182.821 116.169C179.68 115.202 176.596 114.231 173.568 113.258L172.038 118.018C175.086 118.998 178.189 119.974 181.349 120.947L182.821 116.169ZM164.27 110.205C161.149 109.157 158.091 108.108 155.094 107.056L153.439 111.774C156.457 112.833 159.537 113.89 162.679 114.945L164.27 110.205ZM145.878 103.746C142.799 102.614 139.789 101.48 136.846 100.346L135.048 105.012C138.015 106.155 141.049 107.298 144.153 108.439L145.878 103.746ZM127.7 96.7308C124.66 95.4984 121.698 94.2659 118.812 93.0339L116.849 97.6326C119.764 98.8767 122.754 100.121 125.822 101.365L127.7 96.7308ZM109.833 89.0954C106.798 87.7269 103.854 86.3604 100.999 84.9969L98.8447 89.5088C101.733 90.8884 104.71 92.2703 107.777 93.6534L109.833 89.0954ZM92.364 80.7478C89.3753 79.2321 86.4937 77.7216 83.7153 76.218L81.3356 80.6154C84.1539 82.1406 87.0749 83.6717 90.1024 85.2071L92.364 80.7478ZM75.2136 71.4558C72.3209 69.7776 69.5546 68.1103 66.9092 66.4563L64.2585 70.6959C66.9517 72.3798 69.7653 74.0755 72.7045 75.7807L75.2136 71.4558ZM58.8052 61.1812C56.0252 59.2952 53.4005 57.4305 50.9225 55.5906L47.9419 59.6051C50.4784 61.4884 53.161 63.3941 55.9982 65.3189L58.8052 61.1812ZM43.3064 49.6472C40.6869 47.4945 38.2679 45.3839 36.034 43.3218L32.6425 46.9957C34.9489 49.1248 37.4404 51.2983 40.1318 53.5101L43.3064 49.6472ZM29.2231 36.6052C26.8539 34.0989 24.763 31.6844 22.9179 29.3751L19.0117 32.4963C20.9458 34.9168 23.1278 37.4358 25.5896 40.04L29.2231 36.6052ZM17.3732 21.6853C15.4214 18.6474 13.9258 15.8745 12.7794 13.4099L8.24583 15.5187C9.48906 18.1915 11.0944 21.1627 13.1666 24.388L17.3732 21.6853ZM9.6519 4.69088C9.30848 3.25837 9.14594 2.16932 9.06897 1.46255C9.03048 1.10907 9.01336 0.850923 9.00575 0.692958C9.00194 0.613973 9.00051 0.560018 8.99997 0.531696C8.99971 0.517534 8.99967 0.509777 8.99967 0.508503C8.99965 0.507877 8.99967 0.508855 8.99966 0.511474C8.99965 0.512784 8.99965 0.514501 8.99963 0.516625C8.99963 0.517687 8.99962 0.51885 8.99961 0.520116C8.99961 0.520748 8.9996 0.521403 8.99959 0.522092C8.99959 0.522437 8.99959 0.522968 8.99959 0.523134C8.99958 0.523679 8.99957 0.524227 6.49969 0.500004C3.99981 0.47578 3.9998 0.476345 3.99979 0.476913C3.9998 0.477102 3.99979 0.477673 3.99978 0.478075C3.99978 0.478855 3.99978 0.47967 3.99977 0.480507C3.99975 0.482195 3.99975 0.483974 3.99973 0.485869C3.99971 0.489647 3.99969 0.493841 3.99967 0.498464C3.99965 0.507685 3.99966 0.518574 3.99971 0.531126C3.99983 0.556218 4.00014 0.587939 4.00087 0.626189C4.00232 0.702702 4.00537 0.805377 4.01154 0.933588C4.0239 1.18999 4.04877 1.54843 4.09836 2.00382C4.19756 2.91479 4.39556 4.21259 4.78967 5.85654L9.6519 4.69088Z" fill="#583577"/>
</g>
<defs>
<filter id="filter0_d_144_39" x="-0.000488281" y="0.476807" width="403.803" height="301.443" filterUnits="userSpaceOnUse" color-interpolation-filters="sRGB">
<feFlood flood-opacity="0" result="BackgroundImageFix"/>
<feColorMatrix in="SourceAlpha" type="matrix" values="0 0 0 0 0 0 0 0 0 0 0 0 0 0 0 0 0 0 127 0" result="hardAlpha"/>
<feOffset dy="4"/>
<feGaussianBlur stdDeviation="2"/>
<feComposite in2="hardAlpha" operator="out"/>
<feColorMatrix type="matrix" values="0 0 0 0 0 0 0 0 0 0 0 0 0 0 0 0 0 0 0.25 0"/>
<feBlend mode="normal" in2="BackgroundImageFix" result="effect1_dropShadow_144_39"/>
<feBlend mode="normal" in="SourceGraphic" in2="effect1_dropShadow_144_39" result="shape"/>
</filter>
</defs>
</svg>
