<svg width="588" height="408" viewBox="0 0 588 408" fill="none" xmlns="http://www.w3.org/2000/svg">
<path d="M569.159 151.42L567.61 153.383L569.159 151.42ZM225.731 394.951C225.152 396.204 225.698 397.69 226.951 398.269L247.374 407.711C248.628 408.29 250.113 407.744 250.693 406.49C251.272 405.237 250.726 403.752 249.472 403.172L231.318 394.78L239.711 376.626C240.29 375.373 239.744 373.887 238.491 373.307C237.237 372.728 235.752 373.274 235.172 374.528L225.731 394.951ZM9.80793 0.297375C8.92307 1.91 8.10204 3.50017 7.34414 5.06829L11.8459 7.24408C12.5645 5.75727 13.3459 4.2436 14.1914 2.70263L9.80793 0.297375ZM3.54706 14.2198C2.34984 17.7102 1.49338 21.0878 0.971448 24.3562L5.90889 25.1446C6.38112 22.1874 7.16286 19.089 8.27658 15.842L3.54706 14.2198ZM0.453918 34.7235C0.695347 38.2912 1.39027 41.6951 2.51718 44.9377L7.24008 43.2963C6.26204 40.4821 5.6544 37.5172 5.44251 34.3859L0.453918 34.7235ZM7.21257 54.2434C9.10163 57.0367 11.3525 59.6653 13.9315 62.1403L17.3936 58.5328C15.0418 56.2759 13.0259 53.9141 11.3544 51.4424L7.21257 54.2434ZM21.9591 68.6627C24.6072 70.5056 27.4693 72.2527 30.5293 73.9105L32.9111 69.5143C29.9954 67.9346 27.2939 66.2837 24.8153 64.5587L21.9591 68.6627ZM39.5265 78.2919C42.5314 79.6111 45.6829 80.868 48.9715 82.0664L50.6835 77.3686C47.4854 76.2032 44.434 74.9858 41.5365 73.7137L39.5265 78.2919ZM58.3307 85.2106C61.4377 86.1738 64.6463 87.0951 67.9502 87.977L69.2397 83.1461C65.9945 82.2799 62.8499 81.3768 59.8111 80.4348L58.3307 85.2106ZM77.603 90.3818C80.7638 91.1169 83.9995 91.8216 87.3056 92.4977L88.3073 87.5991C85.0419 86.9313 81.85 86.2361 78.7357 85.5117L77.603 90.3818ZM97.0656 94.3756C100.27 94.9556 103.532 95.5124 106.849 96.0471L107.645 91.1109C104.358 90.5809 101.127 90.0295 97.9563 89.4555L97.0656 94.3756ZM116.627 97.539C119.873 98.0076 123.166 98.4577 126.502 98.8904L127.145 93.932C123.832 93.5021 120.563 93.0553 117.341 92.5903L116.627 97.539ZM136.26 100.093C139.545 100.478 142.868 100.848 146.226 101.204L146.753 96.2322C143.412 95.8781 140.108 95.5101 136.841 95.1274L136.26 100.093ZM155.952 102.188C159.224 102.504 162.527 102.808 165.856 103.101L166.294 98.12C162.978 97.8282 159.69 97.5256 156.432 97.2113L155.952 102.188ZM175.693 103.929C178.95 104.192 182.231 104.445 185.532 104.689L185.902 99.7028C182.61 99.459 179.34 99.2068 176.095 98.9453L175.693 103.929ZM195.466 105.396C198.713 105.618 201.979 105.832 205.26 106.04L205.576 101.05C202.302 100.843 199.045 100.629 195.807 100.407L195.466 105.396ZM215.152 106.645C218.428 106.838 221.717 107.026 225.02 107.209L225.296 102.216C221.999 102.034 218.716 101.847 215.447 101.654L215.152 106.645ZM234.864 107.737C238.157 107.909 241.459 108.077 244.771 108.241L245.018 103.247C241.711 103.083 238.412 102.916 235.125 102.744L234.864 107.737ZM254.609 108.718C257.891 108.873 261.18 109.026 264.474 109.177L264.702 104.183C261.411 104.032 258.125 103.879 254.846 103.723L254.609 108.718ZM274.354 109.624C277.636 109.77 280.922 109.915 284.208 110.059L284.428 105.064C281.142 104.92 277.858 104.775 274.577 104.629L274.354 109.624ZM294.072 110.49C297.362 110.634 300.652 110.777 303.94 110.921L304.159 105.926C300.87 105.782 297.58 105.639 294.29 105.495L294.072 110.49ZM313.803 111.355C317.088 111.5 320.369 111.647 323.645 111.796L323.872 106.801C320.594 106.652 317.311 106.505 314.025 106.36L313.803 111.355ZM333.528 112.251C336.819 112.405 340.103 112.562 343.379 112.722L343.623 107.728C340.344 107.568 337.056 107.411 333.762 107.257L333.528 112.251ZM353.21 113.214C356.519 113.383 359.816 113.557 363.101 113.735L363.372 108.743C360.082 108.564 356.779 108.39 353.466 108.22L353.21 113.214ZM372.916 114.285C376.219 114.476 379.508 114.672 382.779 114.875L383.089 109.885C379.809 109.682 376.514 109.485 373.204 109.293L372.916 114.285ZM392.636 115.509C395.907 115.727 399.158 115.953 402.389 116.186L402.749 111.199C399.509 110.965 396.248 110.739 392.969 110.52L392.636 115.509ZM412.312 116.934C415.596 117.192 418.856 117.46 422.089 117.737L422.516 112.756C419.271 112.477 415.999 112.209 412.704 111.95L412.312 116.934ZM431.922 118.621C435.228 118.932 438.504 119.254 441.745 119.59L442.26 114.616C439.002 114.279 435.711 113.955 432.39 113.643L431.922 118.621ZM451.451 120.644C454.783 121.025 458.076 121.42 461.326 121.831L461.954 116.871C458.683 116.457 455.369 116.059 452.017 115.677L451.451 120.644ZM470.945 123.114C474.285 123.584 477.573 124.072 480.807 124.581L481.584 119.642C478.321 119.129 475.006 118.636 471.641 118.163L470.945 123.114ZM490.393 126.178C493.712 126.764 496.965 127.374 500.148 128.009L501.127 123.106C497.904 122.463 494.615 121.846 491.262 121.255L490.393 126.178ZM509.631 130.027C512.931 130.776 516.144 131.556 519.265 132.37L520.527 127.532C517.35 126.703 514.085 125.91 510.737 125.151L509.631 130.027ZM528.498 134.96C531.769 135.948 534.917 136.98 537.937 138.057L539.618 133.348C536.513 132.24 533.286 131.183 529.943 130.174L528.498 134.96ZM546.922 141.567C549.993 142.883 552.891 144.258 555.608 145.695L557.945 141.275C555.096 139.768 552.074 138.335 548.891 136.971L546.922 141.567ZM563.911 150.67C565.206 151.555 566.439 152.459 567.61 153.383L570.707 149.458C569.442 148.459 568.116 147.487 566.732 146.542L563.911 150.67ZM567.61 153.383C568.985 154.467 570.252 155.562 571.415 156.666L574.857 153.039C573.576 151.824 572.193 150.63 570.707 149.458L567.61 153.383ZM577.453 163.793C579.232 166.516 580.474 169.286 581.232 172.097L586.059 170.795C585.156 167.446 583.689 164.196 581.639 161.059L577.453 163.793ZM582.084 181.136C581.881 184.079 581.236 187.111 580.16 190.23L584.887 191.86C586.087 188.38 586.835 184.915 587.072 181.48L582.084 181.136ZM576.199 198.895C574.699 201.558 572.927 204.264 570.896 207.009L574.916 209.982C577.052 207.094 578.94 204.215 580.555 201.349L576.199 198.895ZM564.682 214.641C562.566 217.029 560.277 219.437 557.826 221.861L561.342 225.416C563.863 222.923 566.228 220.435 568.424 217.957L564.682 214.641ZM550.71 228.544C548.309 230.694 545.792 232.852 543.168 235.017L546.351 238.874C549.022 236.669 551.59 234.467 554.045 232.269L550.71 228.544ZM535.341 241.254C532.789 243.221 530.155 245.192 527.446 247.165L530.389 251.207C533.133 249.209 535.803 247.211 538.394 245.214L535.341 241.254ZM519.244 252.986C516.574 254.835 513.844 256.684 511.058 258.532L513.821 262.699C516.633 260.834 519.392 258.966 522.091 257.097L519.244 252.986ZM502.652 263.997C499.887 265.76 497.076 267.52 494.224 269.277L496.846 273.535C499.72 271.765 502.553 269.99 505.34 268.212L502.652 263.997ZM485.661 274.467C482.829 276.156 479.963 277.841 477.066 279.52L479.573 283.846C482.488 282.156 485.372 280.461 488.223 278.76L485.661 274.467ZM468.375 284.489C465.494 286.115 462.586 287.735 459.657 289.348L462.068 293.728C465.012 292.107 467.935 290.479 470.832 288.844L468.375 284.489ZM450.861 294.135C447.94 295.707 445 297.271 442.046 298.827L444.376 303.251C447.342 301.688 450.295 300.117 453.23 298.538L450.861 294.135ZM433.166 303.456C430.209 304.982 427.242 306.498 424.267 308.005L426.526 312.465C429.512 310.953 432.49 309.431 435.459 307.899L433.166 303.456ZM415.322 312.493C412.333 313.98 409.34 315.455 406.347 316.919L408.543 321.411C411.546 319.942 414.549 318.462 417.548 316.97L415.322 312.493ZM397.353 321.28C394.333 322.732 391.316 324.172 388.305 325.598L390.445 330.117C393.465 328.687 396.491 327.243 399.52 325.786L397.353 321.28ZM379.276 329.842C376.226 331.265 373.186 332.672 370.16 334.064L372.249 338.607C375.283 337.211 378.331 335.8 381.39 334.373L379.276 329.842ZM361.101 338.201C358.021 339.598 354.96 340.976 351.922 342.336L353.964 346.9C357.01 345.537 360.079 344.155 363.166 342.755L361.101 338.201ZM342.83 346.378C339.724 347.749 336.648 349.099 333.604 350.426L335.603 355.009C338.653 353.679 341.737 352.326 344.85 350.951L342.83 346.378ZM324.462 354.388C321.338 355.733 318.257 357.052 315.222 358.343L317.179 362.944C320.22 361.65 323.309 360.328 326.439 358.98L324.462 354.388ZM305.999 362.243C302.875 363.555 299.811 364.835 296.813 366.08L298.73 370.698C301.735 369.45 304.805 368.168 307.936 366.852L305.999 362.243ZM287.47 369.937C284.311 371.233 281.242 372.484 278.271 373.688L280.15 378.322C283.127 377.115 286.203 375.861 289.368 374.562L287.47 369.937ZM269.004 377.422C265.714 378.739 262.577 379.987 259.609 381.16L261.447 385.81C264.421 384.634 267.565 383.384 270.863 382.064L269.004 377.422ZM250.258 384.83C246.796 386.18 243.67 387.388 240.918 388.444L242.71 393.112C245.47 392.053 248.604 390.842 252.074 389.489L250.258 384.83ZM231.732 391.938C230.234 392.502 229.084 392.931 228.309 393.22C227.921 393.364 227.628 393.472 227.431 393.545C227.333 393.581 227.259 393.609 227.21 393.627C227.186 393.636 227.167 393.643 227.155 393.647C227.149 393.649 227.144 393.651 227.141 393.652C227.14 393.653 227.139 393.653 227.138 393.653C227.138 393.653 227.138 393.654 227.137 393.654C227.137 393.654 227.137 393.654 227.137 393.654C227.137 393.654 227.137 393.654 227.137 393.654C227.137 393.654 227.137 393.654 228 396C228.863 398.346 228.863 398.346 228.863 398.346C228.863 398.346 228.863 398.346 228.863 398.346C228.863 398.346 228.863 398.346 228.863 398.346C228.864 398.346 228.864 398.346 228.864 398.346C228.865 398.346 228.867 398.345 228.868 398.344C228.871 398.343 228.876 398.341 228.883 398.339C228.896 398.334 228.915 398.327 228.94 398.318C228.991 398.299 229.066 398.272 229.166 398.235C229.365 398.161 229.661 398.051 230.052 397.906C230.832 397.616 231.989 397.184 233.493 396.618L231.732 391.938Z" fill="#583577"/>
</svg>
