<svg width="134" height="134" viewBox="0 0 134 134" fill="none" xmlns="http://www.w3.org/2000/svg">
<path fill-rule="evenodd" clip-rule="evenodd" d="M74.9033 102.915C76.2988 102.875 77.628 102.696 78.9498 102.403C78.8343 94.0094 79.5487 81.2434 79.758 80.3993C80.531 77.2876 84.448 73.6333 84.7994 73.9408C88.3131 77.0162 97.4788 77.3239 103.437 73.6333C104.094 73.2261 107.279 76.0576 109.095 78.9825C113.591 70.5259 115.697 60.769 114.455 55.4872C113.104 49.7468 110.695 45.5134 105.136 43.6463C104.014 43.2694 102.952 43.053 101.931 42.9756C101.211 44.9416 99.2229 46.2405 96.992 46.2607C95.7634 46.2715 94.5992 45.8886 93.6752 45.2163C93.0251 45.5823 92.3666 45.9838 91.6924 46.4142C89.1356 48.047 88.1582 50.3561 87.1559 52.7224C86.242 54.8803 85.3082 57.0861 83.1377 58.8703C80.1712 61.3085 77.7648 62.3226 74.9082 63.0624C75.4327 74.5312 75.1329 92.8662 74.9033 102.915ZM100.992 67.1745V71.6342C97.3263 73.9408 91.0629 74.0947 86.9382 71.6342V67.4819C89.8408 65.3292 98.2427 64.714 100.992 67.1745Z" fill="#583577"/>
<path fill-rule="evenodd" clip-rule="evenodd" d="M50.1307 33.7203C48.3384 34.0013 46.772 34.5008 45.8446 35.1886V41.0322C46.8948 41.6757 48.3426 42.1267 49.9457 42.3935C49.8194 42.9515 49.6795 43.5225 49.5294 44.1076C49.4795 44.3012 49.4265 44.4939 49.3696 44.6856C46.981 44.1937 44.9388 43.3417 43.7058 42.2624C37.2081 44.9175 30.1156 50.8739 29.4986 53.1805C29.1931 54.3227 28.9127 55.5768 28.6567 56.9284C22.9096 55.655 20.0704 51.9704 19.2815 45.3378C18.2345 36.5346 26.6762 29.2538 30.586 27.3457C35.6276 24.8853 42.3656 24.1097 47.085 28.8836C48.6483 30.4648 49.6097 32.0554 50.1307 33.7203Z" fill="#583577"/>
<path d="M45.8448 35.1886C48.7473 33.0357 57.9134 32.7281 60.6632 35.1886M45.8448 35.1886V41.0322C49.3583 43.1851 57.3223 43.1833 60.6632 41.3397V35.1886M45.8448 35.1886C49.9694 37.1877 57.3655 37.4287 60.6632 35.1886M27.7187 63.1761C28.1732 59.3292 28.7633 55.9307 29.4988 53.1805C30.1158 50.8739 37.2083 44.9175 43.7061 42.2624C47.2196 45.3379 57.3024 46.5681 63.2601 42.8775C68.7726 46.3657 70.9623 48.6532 73.6483 53.1805C76.3339 57.7083 74.7175 110.079 74.7175 110.079C66.1624 116.23 37.137 116.691 27.3601 109.617C27.021 105.102 26.7802 100.376 26.647 95.6236M27.7187 63.1761C33.4432 65.2723 39.6787 65.7068 54.2469 65.6366V98.3916C51.8499 99.5431 48.2877 100.01 44.4698 99.9602C43.2904 99.9448 42.0867 99.8802 40.8854 99.771M27.7187 63.1761C26.6646 72.099 26.34 83.4366 26.6225 94.7007M26.647 95.6236C26.6384 95.3159 26.6302 95.0084 26.6225 94.7007M26.647 95.6236C29.3083 97.6738 35.0687 99.2427 40.8854 99.771M40.8854 99.771L40.4441 91.7799C40.4344 91.6036 40.5572 91.4477 40.7297 91.411C41.5644 91.2334 43.9195 90.6615 45.1628 89.6261C46.7129 88.3357 47.6306 85.4131 47.9437 84.2616C48.0068 84.0285 47.8124 83.8121 47.572 83.8348C46.6612 83.9203 44.6855 84.0553 43.3296 83.7824C42.5658 83.6286 42.413 80.3993 41.4964 79.938C40.4173 79.395 39.1524 80.1592 38.7466 79.0153C38.2053 77.4897 37.8941 75.6549 37.7588 74.7155C37.7198 74.4447 37.4049 74.3183 37.2019 74.5015C36.3846 75.2403 34.7716 76.8797 34.4692 78.554C34.1637 80.2458 31.5667 79.4766 30.65 83.0137C30.1772 84.8384 30.65 85.5873 30.65 87.473C30.65 88.3957 26.6225 94.7007 26.6225 94.7007M63.2601 49.1825C64.3583 49.7196 64.8427 50.2988 65.7042 51.3353M63.2601 53.1805C64.1133 54.4061 64.6699 54.7962 65.7042 55.3336M70.1343 100.391C70.3918 101.135 70.442 101.675 70.1343 103.159M66.6209 107.311C67.7823 107.411 68.3385 107.033 69.3707 106.542M30.7208 103.927C30.5458 104.678 30.5589 105.223 30.7208 106.542M86.9387 67.4819C89.8413 65.3292 98.2432 64.714 100.993 67.1745M86.9387 67.4819V71.6342C91.0634 74.0947 97.3268 73.9408 100.993 71.6342V67.1745M86.9387 67.4819C91.0634 69.4811 97.6957 69.4148 100.993 67.1745M84.7999 78.0927C84.2294 78.6995 83.9391 79.0565 83.5779 79.7844M85.7166 81.7836L84.7999 82.7063M106.34 104.543C106.759 105.922 106.854 106.464 106.951 107.311M102.063 108.233C103.06 108.39 103.543 108.451 104.354 108.541M83.2722 31.0365C84.1111 32.2977 84.1488 33.0046 83.2722 34.2658M38.7466 83.3211V84.2438M34.9275 85.6277C35.3524 86.0503 35.5708 86.3229 35.8375 86.5012C36.0414 86.6376 36.1525 86.9238 35.9847 87.1028C35.6792 87.4287 35.3353 87.5931 34.622 87.6269M84.7999 73.9408C88.3136 77.0161 97.4793 77.3239 103.437 73.6333C104.201 73.1602 108.38 77.0612 109.853 80.3993C110.464 81.7836 111.601 109.002 110.464 110.079C107.867 112.539 86.633 115.461 79.7585 109.617C78.0752 108.187 79.4532 81.6297 79.7585 80.3993C80.5315 77.2876 84.4485 73.6333 84.7999 73.9408ZM80.9809 25.3468C77.0147 25.3048 73.6483 28.428 73.6483 32.4206C73.6483 36.4131 77.0147 39.5363 80.9809 39.4944C84.9039 39.4529 88.1607 36.37 88.1607 32.4206C88.1607 28.4711 84.9039 25.3883 80.9809 25.3468ZM95.9519 19.1955C93.6328 19.109 91.6744 21.0116 91.6744 23.3475C91.6744 25.5986 93.4115 27.4162 95.6463 27.4996C97.9651 27.5861 99.9238 25.6835 99.9238 23.3475C99.9238 21.0965 98.1863 19.2789 95.9519 19.1955ZM96.9925 36.4187C94.1311 36.3927 91.5854 38.6142 91.6744 41.4934C91.761 44.2914 94.2117 46.2858 96.9925 46.2607C99.7455 46.2356 102.129 44.2635 102.215 41.4934C102.304 38.6412 99.8271 36.4445 96.9925 36.4187ZM104.66 87.4353V98.557C104.66 98.7276 104.534 98.8738 104.365 98.9014C96.8034 100.135 92.4767 100.072 85.0756 98.4523C84.9158 98.4174 84.7999 98.275 84.7999 98.1114V87.8754C84.7999 87.6629 84.9905 87.5002 85.2005 87.5296C92.6477 88.5639 96.9625 88.4829 104.241 87.0927C104.457 87.0515 104.66 87.2158 104.66 87.4353Z" stroke="black" stroke-width="1.95312" stroke-linecap="round"/>
</svg>
