<svg width="134" height="134" viewBox="0 0 134 134" fill="none" xmlns="http://www.w3.org/2000/svg">
<path fill-rule="evenodd" clip-rule="evenodd" d="M71.9052 3.57331C59.7367 1.84482 50.5452 9.95394 45.9456 21.3232C43.9645 26.2209 42.2493 32.3119 40.9892 39.1106C43.9741 38.2673 49.881 36.9429 53.0635 36.5672C58.4001 33.9086 65.8102 35.6744 66.1066 35.2866C66.4718 35.7659 73.4123 35.4002 78.1852 38.6554C81.0875 39.1716 88.0518 41.1062 89.0714 41.5789C89.0714 41.5789 90.7226 42.2041 93.1321 43.1372C93.8954 43.4328 94.735 43.7594 95.6228 44.1066C95.1408 43.4244 94.6785 42.7109 94.2409 41.9601C93.5726 40.8134 92.9608 39.5799 92.421 38.2378C90.5907 33.6858 90.2741 29.0852 89.9801 24.8155C89.6606 20.1744 89.3679 15.9243 87.1875 12.5527C83.4325 6.74686 78.7622 4.54742 71.9052 3.57331ZM111.006 60.182C110.754 63.3188 110.481 66.6508 110.284 69.0641C110.134 70.8999 110.027 72.2035 110.006 72.4844C109.958 73.1331 104.04 72.0799 98.4971 71.0938C93.9892 70.2919 89.7284 69.5335 89.0714 69.7701C88.3943 70.0134 89.4152 78.4098 90.5651 87.8685C91.9043 98.8854 93.4189 111.344 92.6304 114.04C91.7514 117.046 69.4065 116.146 51.3467 113.862C53.2118 116.646 55.3131 119.227 57.6694 121.558C66.4987 130.29 77.4189 133.732 89.6996 131.79C103.425 129.62 109.009 116.305 112.861 107.122L112.937 106.94C117.317 96.4993 119.383 82.3711 115.24 68.5168C114.245 65.1877 112.762 62.5094 111.006 60.182ZM66.1066 35.7333C66.1326 35.7321 66.1225 35.2655 66.1066 35.2866C66.1066 35.4157 66.1066 35.6532 66.1066 35.7333Z" fill="#583577"/>
<path d="M39.2332 38.6218C58.808 43.0443 69.7269 43.7545 89.0581 40.5012M39.2332 38.6218C39.2332 38.6218 18.2984 48.4365 17.8797 50.1069C17.461 51.7777 16.7498 66.5743 17.0423 67.8569C17.3348 69.1395 34.2088 67.8703 35.6743 68.6923C37.1398 69.5143 27.091 102.104 28.5564 107.116C30.0219 112.127 91.1514 117.974 92.6171 112.963C94.0823 107.951 87.5925 69.2191 89.0581 68.6923C90.5233 68.1655 109.905 72.5825 109.993 71.4066C110.081 70.2312 111.668 51.1513 111.668 50.1069C111.668 49.063 89.0581 40.5012 89.0581 40.5012M39.2332 38.6218C40.1885 38.0655 48.9167 35.9774 53.0502 35.4894C62.6802 35.4894 68.9606 36.3247 78.1719 37.5777C81.0738 38.0938 88.0385 40.0285 89.0581 40.5012M46.5604 60.3391H49.2819M49.2819 60.3391H52.0033M49.2819 60.3391L47.3979 69.9452M47.3979 69.9452H44.4671M47.3979 69.9452H50.9569M96.5944 54.4921C96.5039 56.6461 96.498 57.5171 96.5944 58.2512M103.084 52.6127C103.077 53.6709 102.982 54.4514 102.456 56.5804M102.456 60.757C102.544 61.9802 102.53 62.6661 102.456 63.8892M35.6743 99.8067C35.8002 101.112 35.8063 101.843 35.6743 103.148M37.7678 105.027C38.8393 105.286 39.4817 105.277 40.6986 105.027M48.235 83.7275C48.235 83.7275 46.0412 80.0094 43.839 80.1774C41.8206 80.3315 40.9381 81.7225 40.6986 83.7275C40.3901 86.31 45.0948 87.0683 45.0948 88.1127C45.0948 88.9481 41.366 89.5842 41.3267 92.0803C41.2922 94.2742 42.2728 95.4739 44.4671 95.6301C47.3979 95.839 50.1194 91.2449 50.1194 91.2449L70.0075 93.1243C70.0075 93.1243 73.5665 96.6744 75.8692 96.6744C78.1719 96.6744 80.0416 93.9907 79.2187 92.0803C78.3959 90.17 75.0317 90.201 75.0317 89.3656C75.0317 88.5302 80.2589 87.8329 79.6375 85.189C79.1346 83.0512 77.8599 82.3444 75.6598 82.2657C73.1657 82.176 71.2633 85.6069 71.2633 85.6069L48.235 83.7275ZM68.3325 65.3511C69.0456 65.4696 71.3458 61.3043 73.7758 62.4274C75.6003 63.2707 75.6837 64.9922 75.241 65.9775C73.7214 69.3619 68.6378 73.3149 68.5419 73.2864C68.446 73.2575 62.8251 66.9574 62.0521 65.9775C61.0663 64.7276 61.4968 62.249 63.5177 61.8009C65.4017 61.3834 67.6194 65.2326 68.3325 65.3511Z" stroke="black" stroke-width="2.34375" stroke-linecap="round"/>
</svg>
