<svg width="134" height="134" viewBox="0 0 134 134" fill="none" xmlns="http://www.w3.org/2000/svg">
<path fill-rule="evenodd" clip-rule="evenodd" d="M32.6733 26.1739C21.4388 29.8303 13.0079 38.2366 12.9825 50.0482C12.9716 55.0928 14.3409 58.9726 16.8008 61.8586C20.7913 50.8333 39.3815 38.8925 58.7883 32.1968C58.4851 31.7859 58.1597 31.3837 57.8117 30.9906C53.5451 26.1687 42.9938 22.8149 32.6733 26.1739ZM61.887 39.9156C43.073 46.1324 27.3529 58.0358 23.5039 66.5323C26.4373 67.7316 29.8857 68.4246 33.7212 68.6867C46.227 69.5414 55.996 63.0646 60.3255 51.3048C61.7928 47.3196 62.3573 43.4637 61.887 39.9156ZM74.9951 59.8364C75.261 57.1049 76.3456 54.1712 79.5972 50.8857C85.363 45.0604 92.6178 41.1786 99.8132 41.611C98.66 43.1656 97.2157 44.7409 95.5298 46.3129C89.7519 51.0481 86.6556 53.1921 81.2852 56.4756C79.2651 57.6355 77.1601 58.7598 74.9951 59.8364ZM71.6899 75.7414C72.4006 75.9692 73.0701 76.0308 73.5341 75.9332C74.7912 75.6685 76.4595 71.3257 75.9444 70.069C89.8511 63.7836 101.26 54.7055 107.574 44.0701C107.598 44.0299 107.615 43.9863 107.624 43.9415C107.989 44.1476 108.353 44.3678 108.715 44.6032C115.926 49.2877 118.499 55.9086 118.142 64.4984C117.724 74.5505 111.02 81.6709 102.85 89.0007C92.9369 97.895 88.0974 101.805 75.1982 105.126C67.4643 107.118 61.5826 107.011 56.3453 103.451C56.1053 103.288 55.87 103.118 55.6393 102.941C55.7519 102.603 55.6547 102.112 55.3884 101.937C53.8512 100.928 53.0401 98.8702 52.4099 96.9913C52.2767 96.5935 51.6783 96.6056 51.5338 96.9997C51.4836 97.1362 51.4308 97.2731 51.3755 97.4105C50.1926 94.3574 50.2403 90.5999 52.365 86.2784C53.1481 84.6859 54.1196 83.536 55.2243 82.6726C54.0065 84.1683 53.7708 86.4267 54.6807 88.2892C55.6225 90.2159 59.0173 90.5555 60.7576 90.5995C61.1358 90.6091 61.3606 91.0924 61.1236 91.3867C60.034 92.7427 58.0743 95.565 58.661 97.7132C59.3163 100.113 60.8401 101.575 63.2697 102.111C67.6565 103.08 69.5539 92.4776 69.5539 92.4776L90.0831 84.9384C90.0831 84.9384 94.4574 88.5221 97.2056 87.4513C100.139 86.3086 101.693 83.0574 100.557 80.1215C99.8316 78.2447 96.9682 77.3779 95.1621 77.0106C94.7438 76.9256 94.6299 76.2569 94.9963 76.0383C96.6897 75.0283 99.3643 73.084 99.3006 70.9069C99.2315 68.549 98.1876 66.6256 95.949 65.8807C93.6136 65.1039 91.8368 66.4581 90.0831 68.1842C88.0559 70.1808 87.7792 75.0953 87.7792 75.0953L62.6412 83.0536C62.6412 83.0536 59.8783 81.0671 57.7602 81.2099C59.2413 80.5834 60.8506 80.1977 62.4984 79.8029C65.6273 79.0529 68.8956 78.2698 71.6899 75.7414ZM101.274 63.0407C102.743 61.751 103.843 59.8808 104.498 58.0953C104.643 57.7012 105.241 57.6891 105.375 58.0869C106.005 59.9654 106.816 62.0223 108.353 63.0319C108.72 63.2727 108.766 64.1136 108.385 64.3305C106.002 65.686 105.717 67.5414 105.615 69.7763C105.595 70.2068 105.121 70.291 104.972 69.8864C104.277 67.9975 103.149 65.0918 101.395 63.9959C101.086 63.8028 101 63.2811 101.274 63.0407Z" fill="#583577"/>
<path d="M16.3457 63.3678C21.3738 42.4253 82.333 17.0852 102.233 30.6977M16.3457 63.3678L22.5354 78.6312C22.5937 78.7753 22.7266 78.8749 22.8809 78.8904C38.4457 80.4419 54.4175 78.1417 68.5068 73.0778M16.3457 63.3678C17.515 66.2417 19.6986 68.2713 22.6301 69.5837M102.233 30.6977C102.333 30.9103 102.421 31.125 102.499 31.3417M102.233 30.6977L102.499 31.3417M68.5068 73.0778C69.5151 75.295 72.2776 76.1974 73.5343 75.9332C74.7914 75.6686 76.4597 71.3257 75.9446 70.069M68.5068 73.0778C67.1211 70.8462 68.6462 67.4024 71.2299 66.928C73.4061 66.5281 75.0007 67.7655 75.9446 70.069M22.6301 69.5837C23.8871 56.038 67.6688 27.5563 101.955 38.0275M22.6301 69.5837C35.3485 75.2766 62.1459 67.4648 81.2853 56.4756C86.6558 53.1917 89.752 51.0482 95.53 46.3129C98.5286 43.5165 100.763 40.7105 101.955 38.0275M102.499 31.3417C103.244 33.4167 103 35.6749 101.955 38.0275M102.499 31.3417L107.6 43.6991C107.651 43.8201 107.641 43.9575 107.574 44.0701C101.261 54.7055 89.8513 63.7836 75.9446 70.069M70.8111 87.4514C70.8111 87.4514 71.2726 84.4556 72.6964 84.3099C73.9677 84.1801 73.9325 86.4279 75.2101 86.4041C76.7984 86.3747 75.932 82.9171 77.5145 83.0536C78.6112 83.1479 78.5115 84.8568 79.6095 84.9384C81.2183 85.0578 80.1074 81.611 81.7041 81.3782C82.7564 81.2245 84.2178 82.4251 84.2178 82.4251M103.071 43.2632L103.281 45.3573M101.395 47.6609L99.7195 49.5457M80.6568 32.5824L83.7991 32.1636M85.8937 30.2788H89.2453M26.1914 75.9332H28.2862M32.4758 75.9332H34.3612M110.612 66.928L111.032 71.5351M108.727 69.8865L113.336 67.5561M62.6413 83.0536C62.6413 83.0536 59.1255 80.5256 56.9853 81.3782C54.3417 82.431 53.4318 85.7328 54.6809 88.2889C55.6227 90.2159 59.0175 90.5555 60.7578 90.5995C61.1359 90.6091 61.3608 91.092 61.1238 91.3868C60.0338 92.7427 58.0744 95.5651 58.6611 97.7132C59.3165 100.113 60.8403 101.575 63.2699 102.111C67.6567 103.08 69.5541 92.4776 69.5541 92.4776L90.0833 84.9384C90.0833 84.9384 94.4575 88.5221 97.2058 87.4514C100.139 86.3086 101.693 83.0574 100.557 80.1216C99.8318 78.2447 96.9684 77.3779 95.1623 77.0107C94.744 76.9257 94.6301 76.2569 94.9965 76.0383C96.6899 75.0283 99.3644 73.084 99.3008 70.907C99.2317 68.549 98.1878 66.6257 95.9487 65.8807C93.6138 65.1039 91.8366 66.4577 90.0833 68.1842C88.0561 70.1808 87.7789 75.0953 87.7789 75.0953L62.6413 83.0536ZM104.498 58.0953C103.843 59.8809 102.743 61.751 101.274 63.0407C101.001 63.2811 101.086 63.8029 101.395 63.9959C103.15 65.0918 104.277 67.9975 104.972 69.8865C105.121 70.291 105.595 70.2068 105.615 69.7763C105.717 67.5415 106.002 65.686 108.385 64.3305C108.766 64.1136 108.72 63.2727 108.353 63.0319C106.816 62.0223 106.005 59.9654 105.375 58.0869C105.242 57.6891 104.643 57.7013 104.498 58.0953ZM55.42 103.235C53.0373 104.591 52.7517 106.447 52.6499 108.682C52.6307 109.112 52.1562 109.197 52.0076 108.792C51.312 106.903 50.1848 103.997 48.4302 102.901C48.1212 102.708 48.0357 102.186 48.3092 101.946C49.7777 100.656 50.8782 98.7857 51.534 96.9997C51.6785 96.6057 52.2764 96.5935 52.41 96.9913C53.0402 98.8702 53.8513 100.928 55.3886 101.937C55.7554 102.178 55.8015 103.018 55.42 103.235Z" stroke="black" stroke-width="2.34375" stroke-linecap="round"/>
</svg>
