<svg width="134" height="134" viewBox="0 0 134 134" fill="none" xmlns="http://www.w3.org/2000/svg">
<path fill-rule="evenodd" clip-rule="evenodd" d="M16.3973 37.6875C13.8596 42.7125 11.1013 54.9605 14.7224 65.1156C16.5389 70.2101 19.394 74.0459 22.4897 77.1312L22.8516 59.2531L23.0974 47.1094L38.8005 39.1532L51.3473 42.9219C52.7476 40.0939 54.3196 37.3099 56.0319 34.7563C55.1651 33.8394 54.4486 32.9666 54.1015 32.5314C53.9708 32.3674 53.9863 32.1329 54.1349 31.9845L60.6432 25.4764C60.7328 25.3866 60.8576 25.3424 60.9828 25.363C61.4509 25.44 62.6603 25.6944 63.6607 26.3813C63.6607 26.3813 71.0441 24.7063 76.0691 26.3813C76.809 26.6278 77.4664 26.8973 78.0535 27.2188C78.0535 27.2188 82.9785 26.1719 84.8628 26.5907C86.4126 26.935 86.9691 28.3653 87.166 29.9407C87.3753 31.6157 87.166 36.0125 87.166 36.0125C87.2275 36.0125 87.2887 36.0125 87.3494 36.0125C87.9335 36.0125 88.5101 36.0125 89.1496 36.0418C89.7421 36.0689 90.3887 36.1212 91.1441 36.2219C92.8635 36.4511 93.7353 37.4523 94.0753 39.1532C94.2546 40.0474 93.907 41.3322 93.3186 42.7125C91.8405 46.1797 88.841 50.25 88.841 50.25L109.988 55.0656V67.2094V91.8046C116.522 85.6461 119.943 80.0662 120.666 70.7687C121.538 59.5567 117.112 49.2031 112.919 41.0375C107.132 29.7679 97.8441 23.8816 89.8878 20.3094C81.9316 16.7372 69.1597 14.2375 57.4347 14.2375C45.7097 14.2375 35.4504 19.0532 29.3786 22.8219C23.3067 26.5906 18.935 32.6625 16.3973 37.6875Z" fill="#583577"/>
<path d="M38.8002 39.1531L23.0971 47.1094M38.8002 39.1531L51.3472 42.9219M38.8002 39.1531V51.8509M23.0971 47.1094L22.8513 59.2531M23.0971 47.1094L38.8002 51.8509M38.8002 51.8509L46.6735 54.2281M22.8513 59.2531L22.3427 84.3781M22.8513 59.2531L39.8471 63.5122M93.8658 119.762L22.3582 98.9146C22.1765 98.8618 22.0529 98.6935 22.0567 98.5042L22.3427 84.3781M93.8658 119.762L109.818 107.954C109.925 107.875 109.988 107.75 109.988 107.617V94.6375M93.8658 119.762V104.478M22.3427 84.3781L36.5082 88.3592M109.988 94.6375V67.2094M109.988 94.6375L93.8658 104.478M93.8658 104.478V76.2125M93.8658 104.478L59.4248 94.7991M109.988 55.0656L88.8408 50.25M109.988 55.0656L93.8658 63.8594M109.988 55.0656V67.2094M88.8408 50.25C88.8408 50.25 91.8399 46.1797 93.318 42.7125M88.8408 50.25C86.0025 50.9807 84.1047 51.1361 82.5595 50.6365M93.8658 63.8594V76.2125M93.8658 63.8594L81.3033 61.4365M109.988 67.2094L93.8658 76.2125M93.318 42.7125C93.9068 41.3322 94.254 40.0474 94.0751 39.1531C93.7351 37.4523 92.8633 36.4511 91.1439 36.2219C90.3885 36.1211 89.7419 36.0689 89.1494 36.0418M93.318 42.7125C89.9894 41.0803 89.0422 39.636 89.1494 36.0418M82.5595 50.6365C82.1165 50.4933 81.7023 50.2961 81.3033 50.0431M82.5595 50.6365C82.5595 50.6365 83.1876 59.0437 82.5595 60.9281C82.3615 61.5232 81.8816 61.5399 81.3033 61.4365M81.3033 61.4365C80.3075 61.2593 79.0198 60.7275 78.372 62.1844C77.818 63.4314 76.084 68.1151 73.6464 71.9827M59.4248 94.7991C63.3423 91.1108 67.1734 85.0289 70.1105 76.2125M59.4248 94.7991C51.2312 102.514 42.6589 99.758 41.0958 89.6481M63.6601 26.3812C62.6597 25.6943 61.4503 25.4399 60.9826 25.363C60.8574 25.3424 60.7326 25.3866 60.6426 25.4763L54.1344 31.9845C53.9861 32.1329 53.9702 32.3673 54.1013 32.5314C54.4484 32.9665 55.1649 33.8393 56.0313 34.7562M63.6601 26.3812C63.9926 26.6095 64.302 26.8856 64.5533 27.2187C66.6914 30.0526 63.9252 35.3844 63.0877 36.4312C62.0458 37.7335 60.3072 38.1641 58.9002 37.2687C57.9408 36.6583 56.909 35.6846 56.0313 34.7562M63.6601 26.3812C63.6601 26.3812 71.0439 24.7062 76.0689 26.3812C76.8084 26.6278 77.4663 26.8972 78.0534 27.2187M56.0313 34.7562C51.9925 40.7804 48.7329 48.0859 46.6735 54.2281M78.0534 27.2187C79.3896 27.9508 80.3594 28.9529 81.0939 30.5687C82.1408 32.8719 80.9942 35.5028 83.397 35.8031C84.9816 36.0011 86.0975 36.0119 87.1658 36.0124M78.0534 27.2187C78.0534 27.2187 82.9783 26.1719 84.8626 26.5906C86.4124 26.935 86.969 28.3653 87.1658 29.9406C87.3751 31.6156 87.1658 36.0124 87.1658 36.0124M79.0001 47.864C79.7803 48.8195 80.5118 49.541 81.3033 50.0431M81.3033 50.0431C81.3033 50.0431 77.7933 55.5061 75.2314 54.0187C73.2968 52.8952 73.9752 49.3183 73.9752 49.3183M82.1408 45.8531C79.4721 47.8979 77.3143 48.8685 73.9752 49.3183M73.9752 49.3183C72.8152 49.4745 71.5129 49.5683 69.997 49.6219M89.1494 36.0418C88.443 36.0094 87.8132 36.0128 87.1658 36.0124M46.6735 54.2281C45.2238 58.5525 44.3691 62.2999 44.2569 64.6173M73.6464 71.9827L93.8658 77.05M73.6464 71.9827C72.5874 73.6631 71.3961 75.1891 70.1105 76.2125M44.2569 64.6173C44.2481 64.7919 44.2439 64.9577 44.2439 65.1156C44.2439 67.1449 44.3699 68.765 44.6706 69.9639M44.2569 64.6173L39.8471 63.5122M39.8471 63.5122C35.5039 73.5057 34.8311 82.3824 36.5082 88.3592M70.1105 76.2125C68.8898 77.1844 67.5846 77.7024 66.2283 77.4687C65.1739 77.287 64.4628 76.6003 64.0097 75.5844M63.4172 69.4191C63.8251 64.163 65.6186 58.1803 65.8095 57.5781C65.9942 56.9969 58.6908 55.9031 57.8533 56.7406C57.3646 57.2297 54.806 62.3569 52.2613 66.6235M63.4172 69.4191L52.2613 66.6235M63.4172 69.4191C63.2309 71.8198 63.3335 74.0685 64.0097 75.5844M52.2613 66.6235C50.4468 69.6653 48.6395 72.2695 47.5939 72.4437C46.0554 72.7 45.1451 71.8575 44.6706 69.9639M64.0097 75.5844C60.1133 84.0544 56.0924 89.6163 52.3467 92.8101M44.6706 69.9639C41.2389 78.0341 40.3333 84.716 41.0958 89.6481M36.5082 88.3592C38.7171 96.2308 45.0023 99.0725 52.3467 92.8101M52.3467 92.8101L41.0958 89.6481M26.0284 79.1437V81.0281M25.4002 93.8V96.1031M90.097 80.6094V82.7031M86.5376 84.7969V87.1M90.097 87.1V89.1937M105.172 104.059L107.056 103.012M103.916 108.247L105.591 107.409M71.0439 34.1281V37.4781M76.0689 34.1281V37.4781M101.403 36.85C104.946 33.6303 106.801 32.1294 109.36 31.1969M104.544 41.0375C108.526 40.5924 110.445 40.4669 112.919 40.6187M103.288 46.2719C106.663 46.4507 108.382 46.8393 111.244 47.864" stroke="black" stroke-width="2.34375" stroke-linecap="round"/>
</svg>
