<svg width="460" height="93" viewBox="0 0 460 93" fill="none" xmlns="http://www.w3.org/2000/svg">
<g clip-path="url(#clip0_341_103)">
<path d="M459.57 0H0V93.06H459.57V0Z" fill="#F0DCFF"/>
<path d="M44.97 56.6602H13.54V9.68018H44.97C57.83 9.68018 67.07 11.4802 72.7 15.0802C77.24 17.9802 79.83 21.9302 80.46 26.9302C80.74 29.0902 80.89 31.1802 80.89 33.1802C80.89 35.1802 80.75 37.2502 80.48 39.4202C80.21 41.5902 79.48 43.7002 78.3 45.7402C77.12 47.7802 75.25 49.6202 72.69 51.2602C70.13 52.9002 66.61 54.2102 62.15 55.1902C57.69 56.1702 51.96 56.6602 44.98 56.6602H44.97ZM43.11 45.0402C53.13 45.0402 58.79 42.5102 60.1 37.4402C60.45 36.0202 60.62 34.6002 60.62 33.1802C60.62 31.7602 60.44 30.3202 60.08 28.9102C59.72 27.5002 58.96 26.2302 57.79 25.0802C56.62 23.9302 54.87 23.0202 52.54 22.3302C50.21 21.6402 47.06 21.3002 43.11 21.3002H33.26V45.0402H43.11Z" fill="#583576"/>
<path d="M119.03 57.6697C107.42 57.6697 98.8699 55.2797 93.3999 50.4997C88.5499 46.2697 86.1299 40.4897 86.1299 33.1797C86.1299 25.8697 88.5499 20.1297 93.3999 15.8897C98.8799 11.1097 107.42 8.71973 119.03 8.71973C130.64 8.71973 139.19 11.1097 144.66 15.8897C149.51 20.1197 151.93 25.8897 151.93 33.1797C151.93 40.4697 149.51 46.2597 144.66 50.4997C139.18 55.2797 130.64 57.6697 119.03 57.6697ZM119.03 45.0697C123.79 45.0697 127.28 43.7097 129.51 40.9797C131.3 38.7797 132.19 36.1797 132.19 33.1897C132.19 30.1997 131.3 27.6097 129.51 25.4297C127.28 22.6797 123.79 21.2997 119.03 21.2997C114.27 21.2997 110.77 22.6797 108.52 25.4297C106.73 27.6097 105.84 30.1997 105.84 33.1897C105.84 36.1797 106.73 38.7797 108.52 40.9797C110.77 43.7097 114.27 45.0697 119.03 45.0697Z" fill="#583576"/>
<path d="M190.07 57.6697C178.46 57.6697 169.91 55.2797 164.44 50.4997C159.59 46.2697 157.17 40.4997 157.17 33.2097C157.17 25.9197 159.59 20.1297 164.44 15.8897C169.92 11.1097 178.46 8.71973 190.07 8.71973C196.68 8.71973 202.18 9.45973 206.57 10.9497C210.96 12.4297 214.4 14.4597 216.9 17.0197C219.4 19.5797 221.11 22.5397 222.02 25.8797H200.94C198.74 22.8497 195.11 21.3297 190.07 21.3297C185.31 21.3297 181.81 22.6897 179.56 25.4197C177.77 27.6197 176.88 30.2197 176.88 33.2097C176.88 36.1997 177.77 38.7897 179.56 40.9697C181.81 43.6997 185.31 45.0597 190.07 45.0597C193.91 45.0597 196.8 44.7297 198.73 44.0597C200.66 43.3897 202.07 42.5297 202.97 41.4597H195.28V33.2097H222.03V56.6797H213.85L212.18 52.1297C206.96 55.8197 199.6 57.6597 190.08 57.6597L190.07 57.6697Z" fill="#583576"/>
<path d="M304.85 56.66H284.88L280.46 48.97H250.83L246.41 56.66H226.44L256.49 9.70996H274.79L304.85 56.66ZM273.82 37.34L265.67 23.1L257.49 37.34H273.83H273.82Z" fill="#583576"/>
<path d="M331.8 57.67C325.45 57.67 320.33 56.99 316.45 55.62C312.56 54.26 309.61 52.38 307.58 49.99C305.55 47.6 304.19 44.84 303.49 41.72H324.41C325.96 43.95 328.43 45.06 331.81 45.06C335.19 45.06 337.66 43.95 339.21 41.72C339.34 41.5 339.41 41.31 339.41 41.13C339.41 40.54 338.63 40.1 337.07 39.8C335.51 39.5 333.18 39.28 330.08 39.13C326.17 38.96 322.07 38.54 317.77 37.89C308.19 36.41 303.4 32.55 303.4 26.33C303.4 25.81 303.43 25.25 303.5 24.66C304.2 21.54 305.56 18.78 307.59 16.39C309.62 14 312.58 12.12 316.46 10.76C320.34 9.39996 325.46 8.70996 331.81 8.70996C338.16 8.70996 343.28 9.38996 347.16 10.76C351.04 12.13 354 14 356.03 16.39C358.06 18.78 359.42 21.54 360.12 24.66H339.2C337.65 22.43 335.18 21.32 331.8 21.32C328.42 21.32 325.95 22.43 324.4 24.66C324.29 24.83 324.24 25 324.24 25.15C324.24 25.67 324.99 26.06 326.48 26.31C327.97 26.56 330.18 26.77 333.09 26.95C336 27.13 339.11 27.41 342.4 27.8C345.69 28.19 348.78 28.87 351.65 29.85C354.52 30.83 356.76 32.26 358.38 34.16C359.65 35.62 360.28 37.48 360.28 39.73C360.28 40.36 360.23 41.03 360.12 41.73C359.42 44.85 358.06 47.61 356.03 50C354 52.39 351.04 54.27 347.16 55.63C343.27 56.99 338.16 57.68 331.81 57.68L331.8 57.67Z" fill="#583576"/>
<path d="M387.85 56.6602H368.14V9.68018H387.85V56.6602Z" fill="#583576"/>
<path d="M424.12 57.67C417.77 57.67 412.65 56.99 408.77 55.62C404.88 54.26 401.93 52.38 399.9 49.99C397.87 47.6 396.51 44.84 395.81 41.72H416.73C418.28 43.95 420.75 45.06 424.13 45.06C427.51 45.06 429.98 43.95 431.53 41.72C431.66 41.5 431.73 41.31 431.73 41.13C431.73 40.54 430.95 40.1 429.39 39.8C427.83 39.5 425.5 39.28 422.4 39.13C418.49 38.96 414.39 38.54 410.09 37.89C400.51 36.41 395.72 32.55 395.72 26.33C395.72 25.81 395.75 25.25 395.82 24.66C396.52 21.54 397.88 18.78 399.91 16.39C401.94 14 404.9 12.12 408.78 10.76C412.66 9.39996 417.78 8.70996 424.13 8.70996C430.48 8.70996 435.6 9.38996 439.48 10.76C443.36 12.13 446.32 14 448.35 16.39C450.38 18.78 451.74 21.54 452.44 24.66H431.52C429.97 22.43 427.5 21.32 424.12 21.32C420.74 21.32 418.27 22.43 416.72 24.66C416.61 24.83 416.56 25 416.56 25.15C416.56 25.67 417.31 26.06 418.8 26.31C420.29 26.56 422.5 26.77 425.41 26.95C428.32 27.13 431.43 27.41 434.72 27.8C438.01 28.19 441.1 28.87 443.97 29.85C446.84 30.83 449.08 32.26 450.7 34.16C451.97 35.62 452.6 37.48 452.6 39.73C452.6 40.36 452.55 41.03 452.44 41.73C451.74 44.85 450.38 47.61 448.35 50C446.32 52.39 443.36 54.27 439.48 55.63C435.59 56.99 430.48 57.68 424.13 57.68L424.12 57.67Z" fill="#583576"/>
<path d="M76.06 81.8999H66.71V67.9199H76.06C79.89 67.9199 82.64 68.4599 84.31 69.5299C85.66 70.3899 86.43 71.5699 86.62 73.0599C86.7 73.6999 86.75 74.3199 86.75 74.9199C86.75 75.5199 86.71 76.1299 86.63 76.7799C86.55 77.4299 86.33 78.0499 85.98 78.6599C85.63 79.2699 85.07 79.8099 84.31 80.2999C83.55 80.7899 82.5 81.1799 81.17 81.4699C79.84 81.7599 78.14 81.9099 76.06 81.9099V81.8999ZM75.51 78.4499C78.49 78.4499 80.18 77.6999 80.57 76.1899C80.67 75.7699 80.73 75.3499 80.73 74.9199C80.73 74.4899 80.68 74.0699 80.57 73.6499C80.46 73.2299 80.24 72.8499 79.89 72.5099C79.54 72.1699 79.02 71.8999 78.33 71.6899C77.64 71.4799 76.7 71.3799 75.52 71.3799H72.59V78.4399H75.52L75.51 78.4499Z" fill="#54989B"/>
<path d="M98.0996 82.2097C94.6496 82.2097 92.0996 81.4997 90.4696 80.0797C89.0296 78.8197 88.3096 77.0997 88.3096 74.9297C88.3096 72.7597 89.0296 71.0497 90.4696 69.7897C92.0996 68.3697 94.6396 67.6597 98.0996 67.6597C101.56 67.6597 104.1 68.3697 105.73 69.7897C107.17 71.0497 107.89 72.7597 107.89 74.9297C107.89 77.0997 107.17 78.8197 105.73 80.0797C104.1 81.4997 101.56 82.2097 98.0996 82.2097ZM98.0996 78.4597C99.5196 78.4597 100.55 78.0497 101.22 77.2397C101.75 76.5797 102.02 75.8097 102.02 74.9197C102.02 74.0297 101.75 73.2597 101.22 72.6097C100.56 71.7897 99.5196 71.3797 98.0996 71.3797C96.6796 71.3797 95.6396 71.7897 94.9696 72.6097C94.4396 73.2597 94.1696 74.0297 94.1696 74.9197C94.1696 75.8097 94.4396 76.5797 94.9696 77.2397C95.6396 78.0497 96.6796 78.4597 98.0996 78.4597Z" fill="#54989B"/>
<path d="M119.24 82.2097C115.79 82.2097 113.24 81.4997 111.61 80.0797C110.17 78.8197 109.45 77.1097 109.45 74.9397C109.45 72.7697 110.17 71.0497 111.61 69.7897C113.24 68.3697 115.78 67.6597 119.24 67.6597C121.21 67.6597 122.84 67.8797 124.15 68.3197C125.46 68.7597 126.48 69.3597 127.22 70.1297C127.96 70.8997 128.47 71.7697 128.74 72.7597H122.47C121.81 71.8597 120.74 71.4097 119.24 71.4097C117.82 71.4097 116.78 71.8197 116.11 72.6297C115.58 73.2897 115.31 74.0597 115.31 74.9497C115.31 75.8397 115.58 76.6097 116.11 77.2597C116.78 78.0697 117.82 78.4797 119.24 78.4797C120.38 78.4797 121.24 78.3797 121.82 78.1797C122.39 77.9797 122.82 77.7197 123.08 77.4097H120.79V74.9597H128.75V81.9397H126.31L125.81 80.5897C124.26 81.6897 122.07 82.2397 119.23 82.2397L119.24 82.2097Z" fill="#54989B"/>
<path d="M144.1 82.2099C142.21 82.2099 140.69 82.0099 139.53 81.5999C138.37 81.1899 137.49 80.6399 136.89 79.9199C136.29 79.2099 135.88 78.3899 135.67 77.4599H141.89C142.35 78.1199 143.08 78.4499 144.09 78.4499C145.1 78.4499 145.83 78.1199 146.29 77.4599C146.33 77.3999 146.35 77.3399 146.35 77.2799C146.35 77.0999 146.12 76.9699 145.65 76.8899C145.19 76.7999 144.49 76.7399 143.57 76.6899C142.41 76.6399 141.19 76.5099 139.91 76.3199C137.06 75.8799 135.63 74.7299 135.63 72.8799C135.63 72.7199 135.63 72.5599 135.66 72.3799C135.87 71.4499 136.27 70.6299 136.88 69.9199C137.48 69.2099 138.36 68.6499 139.52 68.2399C140.68 67.8299 142.2 67.6299 144.09 67.6299C145.98 67.6299 147.5 67.8299 148.66 68.2399C149.82 68.6499 150.7 69.1999 151.3 69.9199C151.9 70.6299 152.31 71.4499 152.52 72.3799H146.3C145.84 71.7199 145.11 71.3899 144.1 71.3899C143.09 71.3899 142.36 71.7199 141.9 72.3799C141.87 72.4299 141.85 72.4799 141.85 72.5299C141.85 72.6899 142.07 72.7999 142.52 72.8799C142.96 72.9499 143.62 73.0199 144.49 73.0699C145.36 73.1199 146.28 73.2099 147.26 73.3199C148.24 73.4299 149.16 73.6399 150.01 73.9299C150.86 74.2199 151.53 74.6499 152.01 75.2099C152.39 75.6499 152.58 76.1999 152.58 76.8699C152.58 77.0599 152.56 77.2599 152.53 77.4599C152.32 78.3899 151.92 79.2099 151.31 79.9199C150.71 80.6299 149.83 81.1899 148.67 81.5999C147.51 82.0099 145.99 82.2099 144.1 82.2099Z" fill="#54989B"/>
<path d="M160.78 81.8999H154.92V67.9199H160.78V81.8999Z" fill="#54989B"/>
<path d="M174.26 81.8999H168.4V71.3799H162.93V67.9199H179.74V71.3799H174.27V81.8999H174.26Z" fill="#54989B"/>
<path d="M192.24 81.8999H186.38V71.3799H180.91V67.9199H197.72V71.3799H192.25V81.8999H192.24Z" fill="#54989B"/>
<path d="M205.72 81.8999H199.86V67.9199H205.72V81.8999Z" fill="#54989B"/>
<path d="M229.58 81.8999H222.61L214.71 72.4399V81.8999H208.85V67.9199H215.82L223.72 77.3299V67.9199H229.58V81.8999Z" fill="#54989B"/>
<path d="M254.09 81.4899C253.49 81.2199 252.96 80.9899 252.48 80.7999C251.5 81.2499 250.52 81.5799 249.54 81.7799C248.18 82.0599 246.64 82.1999 244.9 82.1999C242.19 82.1999 240.18 81.8099 238.85 81.0299C237.53 80.2499 236.86 79.2999 236.86 78.1899C236.86 77.3799 237.25 76.6199 238.02 75.9099C238.8 75.1999 240.07 74.5899 241.84 74.0999C241.1 73.4799 240.59 72.9499 240.31 72.4899C240.03 72.0299 239.89 71.5699 239.89 71.0899C239.89 70.0899 240.44 69.2699 241.54 68.6199C242.64 67.9699 244.31 67.6499 246.55 67.6499C248.79 67.6499 250.52 67.9599 251.59 68.5799C252.66 69.1999 253.2 69.9299 253.2 70.7899C253.2 71.2699 253.04 71.7299 252.71 72.1699C252.38 72.6099 251.99 72.9699 251.52 73.2499C251.06 73.5299 250.23 73.9399 249.03 74.4799C250.02 75.1599 251.06 75.7999 252.13 76.3899C252.42 75.9899 252.66 75.5699 252.87 75.1299L257.28 75.8099C257.05 76.3799 256.82 76.8299 256.61 77.1599C256.4 77.4999 256.1 77.8999 255.71 78.3599L257.83 79.3699C258.09 79.4899 258.42 79.6199 258.83 79.7799L255.78 82.2099C255.23 81.9999 254.65 81.7599 254.06 81.4899H254.09ZM249 78.8799C247.79 78.2399 246.25 77.2999 244.37 76.0699C243.59 76.4499 243.07 76.7699 242.82 77.0399C242.57 77.3099 242.44 77.5899 242.44 77.8899C242.44 78.3599 242.73 78.7699 243.32 79.1399C243.91 79.5099 244.66 79.6899 245.59 79.6899C246.6 79.6899 247.74 79.4199 249 78.8799ZM248.08 71.7499C248.48 71.4299 248.68 71.1199 248.68 70.8299C248.68 70.5399 248.51 70.2799 248.18 70.0699C247.85 69.8599 247.39 69.7499 246.8 69.7499C246.21 69.7499 245.76 69.8699 245.4 70.0999C245.04 70.3299 244.86 70.6099 244.86 70.9199C244.86 71.3199 245.37 71.8899 246.39 72.6399C247.12 72.3699 247.68 72.0699 248.08 71.7399V71.7499Z" fill="#54989B"/>
<path d="M273.63 82.2099C271.74 82.2099 270.22 82.0099 269.06 81.5999C267.9 81.1899 267.02 80.6399 266.42 79.9199C265.82 79.2099 265.41 78.3899 265.2 77.4599H271.42C271.88 78.1199 272.61 78.4499 273.62 78.4499C274.63 78.4499 275.36 78.1199 275.82 77.4599C275.86 77.3999 275.88 77.3399 275.88 77.2799C275.88 77.0999 275.65 76.9699 275.18 76.8899C274.72 76.7999 274.02 76.7399 273.1 76.6899C271.94 76.6399 270.72 76.5099 269.44 76.3199C266.59 75.8799 265.16 74.7299 265.16 72.8799C265.16 72.7199 265.16 72.5599 265.19 72.3799C265.4 71.4499 265.8 70.6299 266.41 69.9199C267.01 69.2099 267.89 68.6499 269.05 68.2399C270.21 67.8299 271.73 67.6299 273.62 67.6299C275.51 67.6299 277.03 67.8299 278.19 68.2399C279.35 68.6499 280.23 69.1999 280.83 69.9199C281.43 70.6299 281.84 71.4499 282.05 72.3799H275.83C275.37 71.7199 274.64 71.3899 273.63 71.3899C272.62 71.3899 271.89 71.7199 271.43 72.3799C271.4 72.4299 271.38 72.4799 271.38 72.5299C271.38 72.6899 271.6 72.7999 272.05 72.8799C272.49 72.9499 273.15 73.0199 274.02 73.0699C274.89 73.1199 275.81 73.2099 276.79 73.3199C277.77 73.4299 278.69 73.6399 279.54 73.9299C280.39 74.2199 281.06 74.6499 281.54 75.2099C281.92 75.6499 282.11 76.1999 282.11 76.8699C282.11 77.0599 282.09 77.2599 282.06 77.4599C281.85 78.3899 281.45 79.2099 280.84 79.9199C280.24 80.6299 279.36 81.1899 278.2 81.5999C277.04 82.0099 275.52 82.2099 273.63 82.2099Z" fill="#54989B"/>
<path d="M293.45 82.2099C290 82.2099 287.45 81.4999 285.82 80.0799C284.38 78.8299 283.66 77.1099 283.66 74.9399C283.66 72.7699 284.38 71.0499 285.82 69.7899C287.45 68.3699 289.99 67.6699 293.45 67.6699C295.48 67.6699 297.15 67.8999 298.48 68.3699C299.8 68.8299 300.83 69.4699 301.57 70.2699C302.31 71.0699 302.79 71.9999 303.03 73.0399H296.86C296.24 71.9599 295.11 71.4099 293.45 71.4099C292.03 71.4099 290.99 71.8199 290.32 72.6399C289.79 73.2899 289.52 74.0599 289.52 74.9499C289.52 75.8399 289.79 76.6099 290.32 77.2599C290.99 78.0799 292.03 78.4899 293.45 78.4899C295.11 78.4899 296.24 77.9399 296.86 76.8499H303.03C302.79 77.8999 302.3 78.8199 301.57 79.6299C300.84 80.4399 299.81 81.0699 298.48 81.5299C297.16 81.9899 295.48 82.2299 293.45 82.2299V82.2099Z" fill="#54989B"/>
<path d="M324.46 81.8999H318.6V76.2599H311.24V81.8999H305.38V67.9199H311.24V73.5699H318.6V67.9199H324.46V81.8999Z" fill="#54989B"/>
<path d="M336.59 82.2097C333.14 82.2097 330.59 81.4997 328.96 80.0797C327.52 78.8197 326.8 77.0997 326.8 74.9297C326.8 72.7597 327.52 71.0497 328.96 69.7897C330.59 68.3697 333.13 67.6597 336.59 67.6597C340.05 67.6597 342.59 68.3697 344.22 69.7897C345.66 71.0497 346.38 72.7597 346.38 74.9297C346.38 77.0997 345.66 78.8197 344.22 80.0797C342.59 81.4997 340.05 82.2097 336.59 82.2097ZM336.59 78.4597C338.01 78.4597 339.04 78.0497 339.71 77.2397C340.24 76.5797 340.51 75.8097 340.51 74.9197C340.51 74.0297 340.24 73.2597 339.71 72.6097C339.05 71.7897 338.01 71.3797 336.59 71.3797C335.17 71.3797 334.13 71.7897 333.46 72.6097C332.93 73.2597 332.66 74.0297 332.66 74.9197C332.66 75.8097 332.93 76.5797 333.46 77.2397C334.13 78.0497 335.17 78.4597 336.59 78.4597Z" fill="#54989B"/>
<path d="M357.73 82.2097C354.28 82.2097 351.73 81.4997 350.1 80.0797C348.66 78.8197 347.94 77.0997 347.94 74.9297C347.94 72.7597 348.66 71.0497 350.1 69.7897C351.73 68.3697 354.27 67.6597 357.73 67.6597C361.19 67.6597 363.73 68.3697 365.36 69.7897C366.8 71.0497 367.52 72.7597 367.52 74.9297C367.52 77.0997 366.8 78.8197 365.36 80.0797C363.73 81.4997 361.19 82.2097 357.73 82.2097ZM357.73 78.4597C359.15 78.4597 360.18 78.0497 360.85 77.2397C361.38 76.5797 361.65 75.8097 361.65 74.9197C361.65 74.0297 361.38 73.2597 360.85 72.6097C360.19 71.7897 359.15 71.3797 357.73 71.3797C356.31 71.3797 355.27 71.7897 354.6 72.6097C354.07 73.2597 353.8 74.0297 353.8 74.9197C353.8 75.8097 354.07 76.5797 354.6 77.2397C355.27 78.0497 356.31 78.4597 357.73 78.4597Z" fill="#54989B"/>
<path d="M386.17 81.8999H369.85V67.9199H375.71V78.4399H386.16V81.8999H386.17Z" fill="#54989B"/>
</g>
<defs>
<clipPath id="clip0_341_103">
<rect width="460" height="93" fill="white"/>
</clipPath>
</defs>
</svg>
