<?xml version="1.0" encoding="UTF-8"?>
<svg xmlns="http://www.w3.org/2000/svg" viewBox="0 0 459.57 192.04">
  <defs>
    <style>
      .cls-1 {
        fill: #583576;
      }

      .cls-1, .cls-2, .cls-3 {
        stroke-width: 0px;
      }

      .cls-2 {
        fill: #54989b;
      }

      .cls-3 {
        fill: #f0dcff;
      }
    </style>
  </defs>
  <g id="Capa_1" data-name="Capa 1">
    <rect class="cls-3" width="459.57" height="93.06"/>
  </g>
  <g id="Capa_5" data-name="Capa 5">
    <g>
      <path class="cls-1" d="M44.97,56.66H13.54V9.68h31.43c12.86,0,22.1,1.8,27.73,5.4,4.54,2.9,7.13,6.85,7.76,11.85.28,2.16.43,4.25.43,6.25s-.14,4.07-.41,6.24-1,4.28-2.18,6.32-3.05,3.88-5.61,5.52-6.08,2.95-10.54,3.93-10.19,1.47-17.17,1.47ZM43.11,45.04c10.02,0,15.68-2.53,16.99-7.6.35-1.42.52-2.84.52-4.26s-.18-2.86-.54-4.27-1.12-2.68-2.29-3.83-2.92-2.06-5.25-2.75-5.48-1.03-9.43-1.03h-9.85v23.74h9.85Z"/>
      <path class="cls-1" d="M119.03,57.67c-11.61,0-20.16-2.39-25.63-7.17-4.85-4.23-7.27-10.01-7.27-17.32s2.42-13.05,7.27-17.29c5.48-4.78,14.02-7.17,25.63-7.17s20.16,2.39,25.63,7.17c4.85,4.23,7.27,10,7.27,17.29s-2.42,13.08-7.27,17.32c-5.48,4.78-14.02,7.17-25.63,7.17ZM119.03,45.07c4.76,0,8.25-1.36,10.48-4.09,1.79-2.2,2.68-4.8,2.68-7.79s-.89-5.58-2.68-7.76c-2.23-2.75-5.72-4.13-10.48-4.13s-8.26,1.38-10.51,4.13c-1.79,2.18-2.68,4.77-2.68,7.76s.89,5.59,2.68,7.79c2.25,2.73,5.75,4.09,10.51,4.09Z"/>
      <path class="cls-1" d="M190.07,57.67c-11.61,0-20.16-2.39-25.63-7.17-4.85-4.23-7.27-10-7.27-17.29s2.42-13.08,7.27-17.32c5.48-4.78,14.02-7.17,25.63-7.17,6.61,0,12.11.74,16.5,2.23,4.39,1.48,7.83,3.51,10.33,6.07,2.5,2.56,4.21,5.52,5.12,8.86h-21.08c-2.2-3.03-5.83-4.55-10.87-4.55-4.76,0-8.26,1.36-10.51,4.09-1.79,2.2-2.68,4.8-2.68,7.79s.89,5.58,2.68,7.76c2.25,2.73,5.75,4.09,10.51,4.09,3.84,0,6.73-.33,8.66-1s3.34-1.53,4.24-2.6h-7.69v-8.25h26.75v23.47h-8.18l-1.67-4.55c-5.22,3.69-12.58,5.53-22.1,5.53Z"/>
      <path class="cls-1" d="M304.85,56.66h-19.97l-4.42-7.69h-29.63l-4.42,7.69h-19.97l30.05-46.95h18.3l30.06,46.95ZM273.82,37.34l-8.15-14.24-8.18,14.24h16.34Z"/>
      <path class="cls-1" d="M331.8,57.67c-6.35,0-11.47-.68-15.35-2.05-3.89-1.36-6.84-3.24-8.87-5.63s-3.39-5.15-4.09-8.27h20.92c1.55,2.23,4.02,3.34,7.4,3.34s5.85-1.11,7.4-3.34c.13-.22.2-.41.2-.59,0-.59-.78-1.03-2.34-1.33s-3.89-.52-6.99-.67c-3.91-.17-8.01-.59-12.31-1.24-9.58-1.48-14.37-5.34-14.37-11.56,0-.52.03-1.08.1-1.67.7-3.12,2.06-5.88,4.09-8.27s4.99-4.27,8.87-5.63,9-2.05,15.35-2.05,11.47.68,15.35,2.05,6.84,3.24,8.87,5.63,3.39,5.15,4.09,8.27h-20.92c-1.55-2.23-4.02-3.34-7.4-3.34s-5.85,1.11-7.4,3.34c-.11.17-.16.34-.16.49,0,.52.75.91,2.24,1.16s3.7.46,6.61.64,6.02.46,9.31.85,6.38,1.07,9.25,2.05,5.11,2.41,6.73,4.31c1.27,1.46,1.9,3.32,1.9,5.57,0,.63-.05,1.3-.16,2-.7,3.12-2.06,5.88-4.09,8.27s-4.99,4.27-8.87,5.63c-3.89,1.36-9,2.05-15.35,2.05Z"/>
      <path class="cls-1" d="M387.85,56.66h-19.71V9.68h19.71v46.98Z"/>
      <path class="cls-1" d="M424.12,57.67c-6.35,0-11.47-.68-15.35-2.05-3.89-1.36-6.84-3.24-8.87-5.63s-3.39-5.15-4.09-8.27h20.92c1.55,2.23,4.02,3.34,7.4,3.34s5.85-1.11,7.4-3.34c.13-.22.2-.41.2-.59,0-.59-.78-1.03-2.34-1.33s-3.89-.52-6.99-.67c-3.91-.17-8.01-.59-12.31-1.24-9.58-1.48-14.37-5.34-14.37-11.56,0-.52.03-1.08.1-1.67.7-3.12,2.06-5.88,4.09-8.27s4.99-4.27,8.87-5.63,9-2.05,15.35-2.05,11.47.68,15.35,2.05,6.84,3.24,8.87,5.63,3.39,5.15,4.09,8.27h-20.92c-1.55-2.23-4.02-3.34-7.4-3.34s-5.85,1.11-7.4,3.34c-.11.17-.16.34-.16.49,0,.52.75.91,2.24,1.16s3.7.46,6.61.64,6.02.46,9.31.85,6.38,1.07,9.25,2.05,5.11,2.41,6.73,4.31c1.27,1.46,1.9,3.32,1.9,5.57,0,.63-.05,1.3-.16,2-.7,3.12-2.06,5.88-4.09,8.27s-4.99,4.27-8.87,5.63c-3.89,1.36-9,2.05-15.35,2.05Z"/>
    </g>
    <g>
      <path class="cls-2" d="M76.06,81.9h-9.35v-13.98h9.35c3.83,0,6.58.54,8.25,1.61,1.35.86,2.12,2.04,2.31,3.53.08.64.13,1.26.13,1.86s-.04,1.21-.12,1.86-.3,1.27-.65,1.88c-.35.61-.91,1.15-1.67,1.64s-1.81.88-3.14,1.17-3.03.44-5.11.44ZM75.51,78.45c2.98,0,4.67-.75,5.06-2.26.1-.42.16-.84.16-1.27s-.05-.85-.16-1.27c-.11-.42-.33-.8-.68-1.14-.35-.34-.87-.61-1.56-.82-.69-.21-1.63-.31-2.81-.31h-2.93v7.06h2.93Z"/>
      <path class="cls-2" d="M98.1,82.21c-3.45,0-6-.71-7.63-2.13-1.44-1.26-2.16-2.98-2.16-5.15s.72-3.88,2.16-5.14c1.63-1.42,4.17-2.13,7.63-2.13s6,.71,7.63,2.13c1.44,1.26,2.16,2.97,2.16,5.14s-.72,3.89-2.16,5.15c-1.63,1.42-4.17,2.13-7.63,2.13ZM98.1,78.46c1.42,0,2.45-.41,3.12-1.22.53-.66.8-1.43.8-2.32s-.27-1.66-.8-2.31c-.66-.82-1.7-1.23-3.12-1.23s-2.46.41-3.13,1.23c-.53.65-.8,1.42-.8,2.31s.27,1.66.8,2.32c.67.81,1.71,1.22,3.13,1.22Z"/>
      <path class="cls-2" d="M119.24,82.21c-3.45,0-6-.71-7.63-2.13-1.44-1.26-2.16-2.97-2.16-5.14s.72-3.89,2.16-5.15c1.63-1.42,4.17-2.13,7.63-2.13,1.97,0,3.6.22,4.91.66s2.33,1.04,3.07,1.81,1.25,1.64,1.52,2.63h-6.27c-.66-.9-1.73-1.35-3.23-1.35-1.42,0-2.46.41-3.13,1.22-.53.66-.8,1.43-.8,2.32s.27,1.66.8,2.31c.67.81,1.71,1.22,3.13,1.22,1.14,0,2-.1,2.58-.3.57-.2,1-.46,1.26-.77h-2.29v-2.45h7.96v6.98h-2.44l-.5-1.35c-1.55,1.1-3.74,1.65-6.58,1.65Z"/>
      <path class="cls-2" d="M144.1,82.21c-1.89,0-3.41-.2-4.57-.61-1.16-.41-2.04-.96-2.64-1.68-.6-.71-1.01-1.53-1.22-2.46h6.22c.46.66,1.19.99,2.2.99s1.74-.33,2.2-.99c.04-.06.06-.12.06-.18,0-.18-.23-.31-.7-.39-.46-.09-1.16-.15-2.08-.2-1.16-.05-2.38-.18-3.66-.37-2.85-.44-4.28-1.59-4.28-3.44,0-.16,0-.32.03-.5.21-.93.61-1.75,1.22-2.46.6-.71,1.48-1.27,2.64-1.68,1.16-.41,2.68-.61,4.57-.61s3.41.2,4.57.61c1.16.41,2.04.96,2.64,1.68.6.71,1.01,1.53,1.22,2.46h-6.22c-.46-.66-1.19-.99-2.2-.99s-1.74.33-2.2.99c-.03.05-.05.1-.05.15,0,.16.22.27.67.35.44.07,1.1.14,1.97.19.87.05,1.79.14,2.77.25s1.9.32,2.75.61,1.52.72,2,1.28c.38.44.57.99.57,1.66,0,.19-.02.39-.05.59-.21.93-.61,1.75-1.22,2.46-.6.71-1.48,1.27-2.64,1.68-1.16.41-2.68.61-4.57.61Z"/>
      <path class="cls-2" d="M160.78,81.9h-5.86v-13.98h5.86v13.98Z"/>
      <path class="cls-2" d="M174.26,81.9h-5.86v-10.52h-5.47v-3.46h16.81v3.46h-5.47v10.52Z"/>
      <path class="cls-2" d="M192.24,81.9h-5.86v-10.52h-5.47v-3.46h16.81v3.46h-5.47v10.52Z"/>
      <path class="cls-2" d="M205.72,81.9h-5.86v-13.98h5.86v13.98Z"/>
      <path class="cls-2" d="M229.58,81.9h-6.97l-7.9-9.46v9.46h-5.86v-13.98h6.97l7.9,9.41v-9.41h5.86v13.98Z"/>
      <path class="cls-2" d="M254.09,81.49c-.6-.27-1.13-.5-1.61-.69-.98.45-1.96.78-2.94.98-1.36.28-2.9.42-4.64.42-2.71,0-4.72-.39-6.05-1.17-1.32-.78-1.99-1.73-1.99-2.84,0-.81.39-1.57,1.16-2.28.78-.71,2.05-1.32,3.82-1.81-.74-.62-1.25-1.15-1.53-1.61-.28-.46-.42-.92-.42-1.4,0-1,.55-1.82,1.65-2.47,1.1-.65,2.77-.97,5.01-.97s3.97.31,5.04.93c1.07.62,1.61,1.35,1.61,2.21,0,.48-.16.94-.49,1.38-.33.44-.72.8-1.19,1.08-.46.28-1.29.69-2.49,1.23.99.68,2.03,1.32,3.1,1.91.29-.4.53-.82.74-1.26l4.41.68c-.23.57-.46,1.02-.67,1.35-.21.34-.51.74-.9,1.2l2.12,1.01c.26.12.59.25,1,.41l-3.05,2.43c-.55-.21-1.13-.45-1.72-.72ZM249,78.88c-1.21-.64-2.75-1.58-4.63-2.81-.78.38-1.3.7-1.55.97s-.38.55-.38.85c0,.47.29.88.88,1.25s1.34.55,2.27.55c1.01,0,2.15-.27,3.41-.81ZM248.08,71.75c.4-.32.6-.63.6-.92s-.17-.55-.5-.76c-.33-.21-.79-.32-1.38-.32s-1.04.12-1.4.35c-.36.23-.54.51-.54.82,0,.4.51.97,1.53,1.72.73-.27,1.29-.57,1.69-.9Z"/>
      <path class="cls-2" d="M273.63,82.21c-1.89,0-3.41-.2-4.57-.61-1.16-.41-2.04-.96-2.64-1.68-.6-.71-1.01-1.53-1.22-2.46h6.22c.46.66,1.19.99,2.2.99s1.74-.33,2.2-.99c.04-.06.06-.12.06-.18,0-.18-.23-.31-.7-.39-.46-.09-1.16-.15-2.08-.2-1.16-.05-2.38-.18-3.66-.37-2.85-.44-4.28-1.59-4.28-3.44,0-.16,0-.32.03-.5.21-.93.61-1.75,1.22-2.46.6-.71,1.48-1.27,2.64-1.68,1.16-.41,2.68-.61,4.57-.61s3.41.2,4.57.61c1.16.41,2.04.96,2.64,1.68.6.71,1.01,1.53,1.22,2.46h-6.22c-.46-.66-1.19-.99-2.2-.99s-1.74.33-2.2.99c-.03.05-.05.1-.05.15,0,.16.22.27.67.35.44.07,1.1.14,1.97.19.87.05,1.79.14,2.77.25s1.9.32,2.75.61c.85.29,1.52.72,2,1.28.38.44.57.99.57,1.66,0,.19-.02.39-.05.59-.21.93-.61,1.75-1.22,2.46-.6.71-1.48,1.27-2.64,1.68-1.16.41-2.68.61-4.57.61Z"/>
      <path class="cls-2" d="M293.45,82.21c-3.45,0-6-.71-7.63-2.13-1.44-1.25-2.16-2.97-2.16-5.14s.72-3.89,2.16-5.15c1.63-1.42,4.17-2.12,7.63-2.12,2.03,0,3.7.23,5.03.7,1.32.46,2.35,1.1,3.09,1.9s1.22,1.73,1.46,2.77h-6.17c-.62-1.08-1.75-1.63-3.41-1.63-1.42,0-2.46.41-3.13,1.23-.53.65-.8,1.42-.8,2.31s.27,1.66.8,2.31c.67.82,1.71,1.23,3.13,1.23,1.66,0,2.79-.55,3.41-1.64h6.17c-.24,1.05-.73,1.97-1.46,2.78s-1.76,1.44-3.09,1.9c-1.32.46-3,.7-5.03.7Z"/>
      <path class="cls-2" d="M324.46,81.9h-5.86v-5.64h-7.36v5.64h-5.86v-13.98h5.86v5.65h7.36v-5.65h5.86v13.98Z"/>
      <path class="cls-2" d="M336.59,82.21c-3.45,0-6-.71-7.63-2.13-1.44-1.26-2.16-2.98-2.16-5.15s.72-3.88,2.16-5.14c1.63-1.42,4.17-2.13,7.63-2.13s6,.71,7.63,2.13c1.44,1.26,2.16,2.97,2.16,5.14s-.72,3.89-2.16,5.15c-1.63,1.42-4.17,2.13-7.63,2.13ZM336.59,78.46c1.42,0,2.45-.41,3.12-1.22.53-.66.8-1.43.8-2.32s-.27-1.66-.8-2.31c-.66-.82-1.7-1.23-3.12-1.23s-2.46.41-3.13,1.23c-.53.65-.8,1.42-.8,2.31s.27,1.66.8,2.32c.67.81,1.71,1.22,3.13,1.22Z"/>
      <path class="cls-2" d="M357.73,82.21c-3.45,0-6-.71-7.63-2.13-1.44-1.26-2.16-2.98-2.16-5.15s.72-3.88,2.16-5.14c1.63-1.42,4.17-2.13,7.63-2.13s6,.71,7.63,2.13c1.44,1.26,2.16,2.97,2.16,5.14s-.72,3.89-2.16,5.15c-1.63,1.42-4.17,2.13-7.63,2.13ZM357.73,78.46c1.42,0,2.45-.41,3.12-1.22.53-.66.8-1.43.8-2.32s-.27-1.66-.8-2.31c-.66-.82-1.7-1.23-3.12-1.23s-2.46.41-3.13,1.23c-.53.65-.8,1.42-.8,2.31s.27,1.66.8,2.32c.67.81,1.71,1.22,3.13,1.22Z"/>
      <path class="cls-2" d="M386.17,81.9h-16.32v-13.98h5.86v10.52h10.45v3.46Z"/>
    </g>
  </g>
</svg>