<svg width="40" height="40" viewBox="0 0 40 40" fill="none" xmlns="http://www.w3.org/2000/svg">
<circle cx="20" cy="20" r="20" fill="#54989B"/>
<g clip-path="url(#clip0_337_71)">
<path d="M20.5875 11.6473C20.4066 11.551 20.2049 11.5006 20 11.5006C19.7951 11.5006 19.5934 11.551 19.4125 11.6473L11.9125 15.6473C11.7125 15.7537 11.5453 15.9126 11.4286 16.1068C11.3119 16.301 11.2502 16.5232 11.25 16.7498V17.771L18.4375 22.0835L20 21.146L21.5625 22.0835L28.75 17.771V16.7498C28.7498 16.5232 28.6881 16.301 28.5714 16.1068C28.4547 15.9126 28.2875 15.7537 28.0875 15.6473L20.5875 11.6473ZM28.75 19.2285L22.7775 22.8123L28.75 26.396V19.2285ZM28.7063 27.8285L20 22.6023L11.2938 27.8273C11.3657 28.0921 11.5227 28.326 11.7407 28.4927C11.9587 28.6594 12.2256 28.7497 12.5 28.7498H27.5C27.7744 28.7497 28.0413 28.6594 28.2593 28.4927C28.4773 28.326 28.6343 28.0934 28.7063 27.8285ZM11.25 26.3948L17.2225 22.811L11.25 19.2285V26.3948ZM18.8238 10.5435C19.1858 10.3505 19.5897 10.2495 20 10.2495C20.4103 10.2495 20.8142 10.3505 21.1763 10.5435L28.6763 14.5435C29.0762 14.7567 29.4106 15.0747 29.6437 15.4633C29.8769 15.8519 30 16.2966 30 16.7498V27.4998C30 28.1628 29.7366 28.7987 29.2678 29.2675C28.7989 29.7364 28.163 29.9998 27.5 29.9998H12.5C11.837 29.9998 11.2011 29.7364 10.7322 29.2675C10.2634 28.7987 10 28.1628 10 27.4998V16.7498C9.99995 16.2966 10.1231 15.8519 10.3563 15.4633C10.5894 15.0747 10.9239 14.7567 11.3238 14.5435L18.8238 10.5435Z" fill="white"/>
</g>
<defs>
<clipPath id="clip0_337_71">
<rect width="20" height="20" fill="white" transform="translate(10 10)"/>
</clipPath>
</defs>
</svg>
