<svg width="48" height="48" viewBox="0 0 48 48" fill="none" xmlns="http://www.w3.org/2000/svg">
<g clip-path="url(#clip0_244_198)">
<path d="M48.0001 24.1471C48.0001 10.8091 37.2541 -0.00292969 24.0001 -0.00292969C10.7401 7.03125e-05 -0.00585938 10.8091 -0.00585938 24.1501C-0.00585938 36.2011 8.77214 46.1911 20.2441 48.0031V31.1281H14.1541V24.1501H20.2501V18.8251C20.2501 12.7741 23.8351 9.43207 29.3161 9.43207C31.9441 9.43207 34.6891 9.90307 34.6891 9.90307V15.8431H31.6621C28.6831 15.8431 27.7531 17.7061 27.7531 19.6171V24.1471H34.4071L33.3451 31.1251H27.7501V48.0001C39.2221 46.1881 48.0001 36.1981 48.0001 24.1471Z" fill="#54989B"/>
</g>
<defs>
<clipPath id="clip0_244_198">
<rect width="48" height="48" fill="white"/>
</clipPath>
</defs>
</svg>
