<svg width="48" height="48" viewBox="0 0 48 48" fill="none" xmlns="http://www.w3.org/2000/svg">
<g clip-path="url(#clip0_244_200)">
<path d="M46.635 19.6745C46.9151 21.2853 47.0547 22.9174 47.052 24.5525C47.052 31.8545 44.442 38.0285 39.9 42.2075H39.906C35.934 45.8765 30.474 48.0005 24 48.0005C17.6348 48.0005 11.5303 45.4719 7.02944 40.971C2.52856 36.4701 0 30.3657 0 24.0005C0 17.6353 2.52856 11.5308 7.02944 7.02989C11.5303 2.52902 17.6348 0.000457445 24 0.000457445C29.9572 -0.0658844 35.7097 2.17191 40.056 6.24646L33.204 13.0985C30.7266 10.7382 27.4213 9.4454 24 9.49846C17.739 9.49846 12.42 13.7225 10.524 19.4105C9.52049 22.3913 9.52049 25.6186 10.524 28.5995H10.533C12.438 34.2785 17.748 38.5025 24.009 38.5025C27.243 38.5025 30.021 37.6745 32.175 36.2105H32.166C33.417 35.3821 34.487 34.3088 35.3115 33.0553C36.136 31.8018 36.6978 30.3942 36.963 28.9175H24V19.6775L46.635 19.6745Z" fill="#54989B"/>
</g>
<defs>
<clipPath id="clip0_244_200">
<rect width="48" height="48" fill="white"/>
</clipPath>
</defs>
</svg>
