<svg width="40" height="40" viewBox="0 0 40 40" fill="none" xmlns="http://www.w3.org/2000/svg">
<circle cx="20" cy="20" r="20" fill="#54989B"/>
<path d="M25.2072 22.1747C24.5522 23.5019 23.6656 24.8251 22.7572 26.0126C21.8517 27.1963 20.943 28.221 20.2596 28.9506C20.1688 29.0475 20.0821 29.1391 20 29.2251C19.9179 29.1391 19.8312 29.0475 19.7404 28.9506C19.057 28.221 18.1484 27.1963 17.2428 26.0126C16.3344 24.8251 15.4478 23.5019 14.7928 22.1747C14.131 20.8338 13.75 19.5774 13.75 18.5C13.75 15.0482 16.5482 12.25 20 12.25C23.4518 12.25 26.25 15.0482 26.25 18.5C26.25 19.5774 25.869 20.8338 25.2072 22.1747ZM20 31C20 31 27.5 23.8921 27.5 18.5C27.5 14.3579 24.1421 11 20 11C15.8579 11 12.5 14.3579 12.5 18.5C12.5 23.8921 20 31 20 31Z" fill="white"/>
<path d="M20 21C18.6193 21 17.5 19.8807 17.5 18.5C17.5 17.1193 18.6193 16 20 16C21.3807 16 22.5 17.1193 22.5 18.5C22.5 19.8807 21.3807 21 20 21ZM20 22.25C22.0711 22.25 23.75 20.5711 23.75 18.5C23.75 16.4289 22.0711 14.75 20 14.75C17.9289 14.75 16.25 16.4289 16.25 18.5C16.25 20.5711 17.9289 22.25 20 22.25Z" fill="white"/>
</svg>
