<svg width="40" height="40" viewBox="0 0 40 40" fill="none" xmlns="http://www.w3.org/2000/svg">
<circle cx="20" cy="20" r="20" fill="#54989B"/>
<g clip-path="url(#clip0_337_73)">
<path d="M14.5671 11.6599C14.4933 11.565 14.4002 11.4868 14.2939 11.4307C14.1876 11.3745 14.0705 11.3416 13.9505 11.3342C13.8305 11.3267 13.7103 11.3449 13.5979 11.3875C13.4854 11.43 13.3833 11.4961 13.2984 11.5811L12.0059 12.8749C11.4021 13.4799 11.1796 14.3361 11.4434 15.0874C12.5393 18.1963 14.3198 21.0191 16.6534 23.3474C18.9816 25.6809 21.8045 27.4615 24.9134 28.5574C25.6646 28.8211 26.5209 28.5986 27.1259 27.9949L28.4184 26.7024C28.5034 26.6174 28.5695 26.5153 28.612 26.4029C28.6546 26.2904 28.6728 26.1702 28.6653 26.0502C28.6579 25.9302 28.625 25.8132 28.5688 25.7069C28.5127 25.6006 28.4345 25.5074 28.3396 25.4336L25.4559 23.1911C25.3544 23.1126 25.2364 23.0581 25.1109 23.0317C24.9853 23.0053 24.8554 23.0077 24.7309 23.0386L21.9934 23.7224C21.6279 23.8131 21.2453 23.8079 20.8824 23.7074C20.5196 23.6069 20.1888 23.4144 19.9221 23.1486L16.8521 20.0774C16.5861 19.8108 16.3934 19.4801 16.2926 19.1173C16.1919 18.7544 16.1866 18.3717 16.2771 18.0061L16.9621 15.2686C16.9931 15.1441 16.9954 15.0142 16.969 14.8886C16.9426 14.7631 16.8881 14.6451 16.8096 14.5436L14.5671 11.6599ZM12.3546 10.6386C12.5734 10.4198 12.8361 10.25 13.1255 10.1406C13.4149 10.0311 13.7243 9.98448 14.0331 10.0037C14.3419 10.023 14.6431 10.1078 14.9166 10.2524C15.1901 10.3969 15.4298 10.5981 15.6196 10.8424L17.8621 13.7249C18.2734 14.2536 18.4184 14.9424 18.2559 15.5924L17.5721 18.3299C17.537 18.4717 17.539 18.6201 17.578 18.7609C17.617 18.9017 17.6916 19.0301 17.7946 19.1336L20.8659 22.2049C20.9695 22.3081 21.0981 22.3828 21.2392 22.4218C21.3802 22.4608 21.5289 22.4627 21.6709 22.4274L24.4071 21.7436C24.7279 21.6639 25.0626 21.6579 25.3861 21.7261C25.7095 21.7943 26.0133 21.9349 26.2746 22.1374L29.1571 24.3799C30.1934 25.1861 30.2884 26.7174 29.3609 27.6436L28.0684 28.9361C27.1434 29.8611 25.7609 30.2674 24.4721 29.8136C21.173 28.6544 18.1778 26.7658 15.7096 24.2886C13.2326 21.8208 11.3441 18.8261 10.1846 15.5274C9.73211 14.2399 10.1384 12.8561 11.0634 11.9311L12.3546 10.6386Z" fill="#F0DCFF"/>
</g>
<defs>
<clipPath id="clip0_337_73">
<rect width="20" height="20" fill="white" transform="translate(10 10)"/>
</clipPath>
</defs>
</svg>
